<svg xmlns="http://www.w3.org/2000/svg" viewBox="0 0 1500 1500"><defs><style>.cls-1,.cls-2{fill:none;}.cls-1,.cls-2,.cls-4,.cls-5,.cls-6{stroke:#000;stroke-miterlimit:10;}.cls-1{stroke-width:10px;}.cls-2{stroke-width:5px;}.cls-3{font-size:111.86px;}.cls-3,.cls-8{font-family:MS-PGothic, MS PGothic;}.cls-4,.cls-6,.cls-7{fill:#fff;}.cls-4{stroke-width:28px;}.cls-5,.cls-6{stroke-width:12px;}.cls-8{font-size:116.27px;}</style></defs><title>信安协会新LOGO</title><g id="图层_5" data-name="图层 5"><circle class="cls-1" cx="750" cy="750" r="737.29"/><circle class="cls-2" cx="750" cy="750" r="715.6"/><circle class="cls-2" cx="750" cy="750" r="552.96"/><circle class="cls-1" cx="750" cy="750" r="531.28"/><text class="cls-3" transform="translate(1321.11 900.93) rotate(106.43)"> </text><text class="cls-3" transform="matrix(-0.34, 0.94, -0.94, -0.34, 1311.8, 932.61)"> </text><text class="cls-3" transform="matrix(-0.39, 0.92, -0.92, -0.39, 1300.75, 963.74)"> </text><text class="cls-3" transform="matrix(-0.44, 0.9, -0.9, -0.44, 1288, 994.18)"> </text><text class="cls-3" transform="translate(1273.55 1023.86) rotate(119.23)"> </text><text class="cls-3" transform="translate(1257.46 1052.68) rotate(122.45)"> </text><text class="cls-3" transform="matrix(-0.58, 0.81, -0.81, -0.58, 1239.77, 1080.55)"> </text><text class="cls-3" transform="matrix(-0.63, 0.78, -0.78, -0.63, 1220.54, 1107.38)"> </text><text class="cls-3" transform="translate(1199.82 1133.11) rotate(132.12)"> </text><text class="cls-3" transform="translate(1177.7 1157.62) rotate(135.33)"> </text><text class="cls-3" transform="matrix(-0.75, 0.66, -0.66, -0.75, 1154.26, 1180.84)"> </text><text class="cls-3" transform="matrix(-0.79, 0.62, -0.62, -0.79, 1129.53, 1202.73)"> </text><text class="cls-3" transform="translate(1103.62 1223.21) rotate(144.91)"> </text><text class="cls-3" transform="matrix(-0.85, 0.53, -0.53, -0.85, 1076.63, 1242.21)"> </text><text class="cls-3" transform="matrix(-0.88, 0.48, -0.48, -0.88, 1048.59, 1259.7)"> </text><text class="cls-3" transform="translate(1019.66 1275.58) rotate(154.46)"> </text><text class="cls-3" transform="translate(989.87 1289.85) rotate(157.65)"> </text><text class="cls-3" transform="translate(959.34 1302.43) rotate(160.85)"> </text><text class="cls-3" transform="translate(928.14 1313.3) rotate(164.05)"> </text><text class="cls-3" transform="translate(896.41 1322.4) rotate(167.26)"> </text><text class="cls-3" transform="translate(864.23 1329.71) rotate(170.47)"> </text><text class="cls-3" transform="translate(831.67 1335.2) rotate(173.7)"> </text><text class="cls-3" transform="translate(798.87 1338.86) rotate(176.92)"> </text><text class="cls-3" transform="translate(765.91 1340.66) rotate(-179.85)"> </text><text class="cls-3" transform="translate(732.89 1340.61) rotate(-176.63)"> </text><text class="cls-3" transform="matrix(-0.99, -0.11, 0.11, -0.99, 699.94, 1338.69)"> </text><text class="cls-3" transform="matrix(-0.99, -0.17, 0.17, -0.99, 667.12, 1334.93)"> </text><text class="cls-3" transform="matrix(-0.97, -0.22, 0.22, -0.97, 634.58, 1329.35)"> </text><text class="cls-3" transform="translate(602.4 1321.98) rotate(-163.9)"> </text><text class="cls-3" transform="matrix(-0.94, -0.33, 0.33, -0.94, 570.64, 1312.84)"> </text><text class="cls-3" transform="matrix(-0.92, -0.38, 0.38, -0.92, 539.47, 1301.98)"> </text><text class="cls-3" transform="translate(508.92 1289.39) rotate(-154.33)"> </text><text class="cls-3" transform="matrix(-0.88, -0.48, 0.48, -0.88, 479.18, 1275.13)"> </text><text class="cls-3" transform="matrix(-0.85, -0.53, 0.53, -0.85, 450.26, 1259.2)"> </text><text class="cls-3" transform="translate(422.28 1241.67) rotate(-144.65)"> </text><text class="cls-3" transform="matrix(-0.78, -0.62, 0.62, -0.78, 395.35, 1222.61)"> </text><text class="cls-3" transform="matrix(-0.75, -0.67, 0.67, -0.75, 369.52, 1202.05)"> </text><text class="cls-3" transform="matrix(-0.71, -0.71, 0.71, -0.71, 344.88, 1180.07)"> </text><text class="cls-3" transform="matrix(-0.67, -0.75, 0.75, -0.67, 321.49, 1156.72)"> </text><text class="cls-3" transform="translate(299.47 1132.14) rotate(-128.61)"> </text><text class="cls-3" transform="translate(278.85 1106.36) rotate(-125.42)"> </text><text class="cls-3" transform="translate(259.68 1079.46) rotate(-122.23)"> </text><text class="cls-3" transform="translate(242.05 1051.54) rotate(-119.05)"> </text><text class="cls-3" transform="translate(225.98 1022.69) rotate(-115.86)"> </text><text class="cls-3" transform="translate(211.55 992.98) rotate(-112.68)"> </text><text class="cls-3" transform="translate(198.79 962.53) rotate(-109.48)"> </text><text class="cls-3" transform="translate(187.75 931.4) rotate(-106.28)"> </text><text class="cls-3" transform="translate(178.47 899.73) rotate(-103.08)"> </text><text class="cls-3" transform="translate(168.82 869.1) rotate(-96.18)">✽</text><text class="cls-3" transform="translate(158.51 760.51) rotate(-87.7)">X</text><text class="cls-3" transform="translate(161.86 694.8) rotate(-83.23)">I</text><text class="cls-3" transform="translate(164.01 668.85) rotate(-78.63)">A</text><text class="cls-3" transform="matrix(0.32, -0.95, 0.95, 0.32, 177.01, 601.54)">M</text><text class="cls-3" transform="translate(203.04 525.1) rotate(-64.64)">E</text><text class="cls-3" transform="translate(228.99 469.54) rotate(-58.26)">N</text><text class="cls-3" transform="translate(266.44 410.42) rotate(-53.25)"> </text><text class="cls-3" transform="translate(285.16 383.88) rotate(-48.26)">U</text><text class="cls-3" transform="matrix(0.75, -0.66, 0.66, 0.75, 331.33, 331.94)">N</text><text class="cls-3" transform="matrix(0.8, -0.6, 0.6, 0.8, 384.37, 286.1)">I</text><text class="cls-3" transform="translate(404.64 269.74) rotate(-32.28)">V</text><text class="cls-3" transform="translate(462.81 233.11) rotate(-26.01)">E</text><text class="cls-3" transform="translate(517.82 205.94) rotate(-19.77)">R</text><text class="cls-3" transform="translate(581.63 182.95) rotate(-13.33)">S</text><text class="cls-3" transform="matrix(0.99, -0.15, 0.15, 0.99, 645.82, 168.48)">I</text><text class="cls-3" transform="translate(671.48 163.68) rotate(-4.43)">T</text><text class="cls-3" transform="translate(735.22 158.63) rotate(1.82)">Y</text><text class="cls-3" transform="translate(799.57 161.27) rotate(6.54)"> </text><text class="cls-3" transform="matrix(0.98, 0.21, -0.21, 0.98, 831.89, 163.85)">O</text><text class="cls-3" transform="translate(907.14 180) rotate(18.34)">F</text><text class="cls-3" transform="translate(964.04 199.36) rotate(22.82)"> </text><text class="cls-3" transform="translate(994.34 211.33) rotate(27.54)">T</text><text class="cls-3" transform="translate(1051.08 240.89) rotate(33.66)">E</text><text class="cls-3" transform="translate(1102.31 274.49) rotate(40.17)">C</text><text class="cls-3" transform="translate(1157.4 320.93) rotate(47.04)">H</text><text class="cls-3" transform="translate(1204.85 371.71) rotate(53.76)">N</text><text class="cls-3" transform="matrix(0.49, 0.87, -0.87, 0.49, 1246.19, 427.48)">O</text><text class="cls-3" transform="translate(1283.36 494.85) rotate(67.32)">L</text><text class="cls-3" transform="translate(1306.43 548.33) rotate(73.85)">O</text><text class="cls-3" transform="matrix(0.15, 0.99, -0.99, 0.15, 1327.82, 622.02)">G</text><text class="cls-3" transform="translate(1339.01 695.04) rotate(87.89)">Y</text><text class="cls-3" transform="translate(1343.21 758.38) rotate(96.29)">✽</text><path class="cls-4" d="M1065.15,789.39V710.61l-85.33-5.34a231.1,231.1,0,0,0-8.4-31.46l71.2-47.27-39.39-68.23-76.59,38.06a235.74,235.74,0,0,0-23-23l38.06-76.59-68.23-39.39-47.27,71.2a231.1,231.1,0,0,0-31.46-8.4l-5.34-85.33H710.61l-5.34,85.33a231.1,231.1,0,0,0-31.46,8.4l-47.27-71.2-68.23,39.39,38.06,76.59a235.74,235.74,0,0,0-23,23l-76.59-38.06-39.39,68.23,71.2,47.27a231.1,231.1,0,0,0-8.4,31.46l-85.33,5.34v78.78l85.33,5.34a231.1,231.1,0,0,0,8.4,31.46l-71.2,47.27,39.39,68.23,76.59-38.06a235.74,235.74,0,0,0,23,23l-38.06,76.59,68.23,39.39,47.27-71.2a231.1,231.1,0,0,0,31.46,8.4l5.34,85.33h78.78l5.34-85.33a231.1,231.1,0,0,0,31.46-8.4l47.27,71.2,68.23-39.39-38.06-76.59a235.74,235.74,0,0,0,23-23l76.59,38.06,39.39-68.23-71.2-47.27a231.1,231.1,0,0,0,8.4-31.46Z"/><circle class="cls-5" cx="750" cy="750" r="175.88"/><circle class="cls-6" cx="750" cy="750" r="141.53"/><path d="M563.84,328.57c-6.88-17.77-2.42-29.95,9.66-34.63S597.09,295.26,604,313s2.6,30.39-9.49,35.07S570.7,346.29,563.84,328.57Zm29.35-11.37c-5.25-13.56-10.88-15.91-16.06-13.9s-7.77,7.54-2.52,21.09,11.07,16.36,16.25,14.35S598.44,330.76,593.19,317.2ZM577.68,323a6.61,6.61,0,1,1,8.59,3.89A6.4,6.4,0,0,1,577.68,323Z"/><path d="M621.29,326.22l14.6-3.73-8-31.33-12,3.07-2-7.82c7-3,10.56-5.3,14.1-8.86l9.24-2.36,11.26,44.09,12.33-3.15,2.59,10.14-39.5,10.1Z"/><path d="M667.9,296.69c-2.49-18.88,4.72-29.67,17.56-31.37s22.61,6.85,25.11,25.74-4.65,30.15-17.5,31.85S670.39,315.53,667.9,296.69Zm31.21-4.12c-1.9-14.41-6.82-18-12.33-17.3s-9.32,5.5-7.42,19.91,6.89,18.51,12.39,17.78S701,307,699.11,292.57Zm-16.45,2a6.61,6.61,0,1,1,7.43,5.81A6.39,6.39,0,0,1,682.66,294.57Z"/><path d="M724.36,308l15.07-.24-.53-32.34-12.41.2-.13-8.06c7.54-1.26,11.5-2.71,15.77-5.36l9.53-.15.74,45.5,12.72-.21.17,10.47-40.76.66Z"/><path d="M776.71,308l15,1.55L795,277.4l-12.35-1.28.83-8c7.64-.35,11.74-1.32,16.29-3.43l9.49,1-4.69,45.26,12.65,1.31-1.08,10.41-40.55-4.2Z"/><path d="M830.67,296.44c4.2-18.59,14.69-26.22,27.33-23.36s18.85,14.25,14.65,32.83-14.79,26.68-27.43,23.83S826.49,315,830.67,296.44Zm30.71,6.93c3.2-14.19-.17-19.28-5.59-20.5S845.15,284.8,842,299s.06,19.74,5.48,21S858.18,317.55,861.38,303.37Zm-16.13-3.82a6.61,6.61,0,1,1,5,8A6.4,6.4,0,0,1,845.25,299.55Z"/><path d="M883.7,309.11c6.37-17.95,17.7-24.28,29.91-19.95s17,16.39,10.64,34.34-17.86,24.73-30.07,20.4S877.34,327,883.7,309.11Zm29.66,10.53c4.86-13.7,2.12-19.16-3.11-21s-10.8.65-15.66,14.35-2.29,19.61,2.94,21.47S908.5,333.33,913.36,319.64Zm-15.56-5.71a6.61,6.61,0,1,1,4,8.55A6.4,6.4,0,0,1,897.8,313.93Z"/><path d="M934.88,328c8.46-17.06,20.46-22,32.07-16.24s14.94,18.3,6.48,35.36-20.68,22.43-32.29,16.68S926.43,345,934.88,328Zm28.2,14c6.46-13,4.38-18.77-.59-21.24s-10.8-.64-17.26,12.39-4.6,19.2.37,21.66S956.62,355,963.08,342Zm-14.77-7.52a6.61,6.61,0,1,1,2.93,9A6.4,6.4,0,0,1,948.31,334.47Z"/><path d="M983.4,352.83c10.42-15.94,22.92-19.42,33.77-12.33s12.67,19.93,2.25,35.88-23.19,19.82-34,12.73S973,368.74,983.4,352.83Zm26.35,17.22c8-12.16,6.58-18.11,1.93-21.15S1001,347,993.07,359.15s-6.84,18.52-2.19,21.56S1001.79,382.22,1009.75,370.05ZM996,360.84a6.61,6.61,0,1,1,1.85,9.25A6.39,6.39,0,0,1,996,360.84Z"/><path d="M1018.82,398.14l11.56,9.68L1051.13,383l-9.51-8,5.17-6.19c6.53,4,10.47,5.48,15.43,6.27l7.31,6.12-29.21,34.89,9.76,8.17-6.72,8-31.26-26.16Z"/><path d="M1070,418.71c13.85-13.07,26.82-13.54,35.71-4.11s7.67,22.34-6.19,35.42-27.17,13.86-36.06,4.44S1056.19,431.75,1070,418.71Zm21.6,22.9c10.57-10,10.62-16.08,6.81-20.12s-9.91-4.35-20.49,5.63-11,16.41-7.16,20.45S1081,451.59,1091.61,441.61Zm-11.25-12.17a6.61,6.61,0,1,1-.36,9.43A6.39,6.39,0,0,1,1080.36,429.44Z"/><path d="M1106.92,458.84c15.3-11.35,28.23-10.29,35.95.12s5,23.09-10.31,34.44-28.62,10.57-36.34.16S1091.66,470.16,1106.92,458.84Zm18.75,25.28c11.68-8.66,12.45-14.72,9.14-19.18s-9.33-5.48-21,3.18-12.83,15-9.52,19.46S1114,492.78,1125.67,484.12Zm-9.73-13.41a6.61,6.61,0,1,1-1.47,9.32A6.39,6.39,0,0,1,1115.94,470.71Z"/><path d="M1124.45,513.6l7.49,13.08L1160,510.6l-6.16-10.77,7-4c4.74,6,7.92,8.76,12.3,11.22l4.73,8.27-39.48,22.61,6.32,11-9.09,5.21-20.25-35.38Z"/><path d="M1149.79,559.46l5.89,13.87,29.77-12.62-4.84-11.43,7.42-3.15c4,6.52,6.83,9.64,10.88,12.6l3.72,8.78-41.89,17.77,5,11.71-9.64,4.09-15.91-37.53Z"/><path d="M1186,601.13c18.3-5.29,30,.21,33.65,12.66s-3.39,23.38-21.68,28.67-30.51-.07-34.11-12.52S1167.76,606.42,1186,601.13Zm8.75,30.24c14-4,16.8-9.45,15.26-14.79s-6.84-8.39-20.8-4.35-17.26,9.59-15.71,14.92S1180.8,635.41,1194.76,631.37Zm-4.44-16a6.61,6.61,0,1,1-4.63,8.22A6.4,6.4,0,0,1,1190.32,615.4Z"/><path d="M1183.32,658.57l2.44,14.87,31.92-5.24-2-12.25,7.95-1.31c2.35,7.28,4.36,11,7.6,14.82l1.55,9.41-44.9,7.37,2.06,12.55-10.33,1.7L1173,660.26Z"/><path d="M1208.67,707.56c19-.85,29.16,7.26,29.74,20.21s-8.78,21.93-27.81,22.79-29.64-7.24-30.22-20.19S1189.69,708.42,1208.67,707.56Zm1.41,31.45c14.53-.65,18.55-5.24,18.3-10.79s-4.67-9.76-19.19-9.11-19,5.26-18.78,10.81S1195.56,739.66,1210.08,739Zm-.57-16.56a6.61,6.61,0,1,1-6.43,6.9A6.4,6.4,0,0,1,1209.51,722.45Z"/><path d="M1192.59,762.79l-1.09,15,32.26,2.32.89-12.38,8,.58c.58,7.63,1.68,11.69,3.94,16.18L1236,794l-45.38-3.27-.91,12.69-10.44-.75,2.93-40.66Z"/><path d="M1205.86,816.36c18.7,3.6,26.66,13.85,24.21,26.57s-13.64,19.28-32.35,15.68S1170.59,844.67,1173,832,1187.2,812.76,1205.86,816.36Zm-5.95,30.91c14.27,2.74,19.26-.78,20.3-6.24s-2.26-10.58-16.54-13.33-19.73.69-20.78,6.14S1185.63,844.52,1199.91,847.27Zm3.3-16.24a6.61,6.61,0,1,1-7.86,5.21A6.39,6.39,0,0,1,1203.21,831Z"/><path d="M1177.34,866.3l-4.59,14.36,30.8,9.85,3.78-11.82,7.69,2.45c-1.23,7.55-1.12,11.76,0,16.65l-2.9,9.08L1168.8,893l-3.88,12.11-10-3.19,12.42-38.82Z"/><path d="M1177.61,921.5c17.33,7.92,22.64,19.76,17.25,31.55s-17.81,15.51-35.14,7.59-23.07-19.95-17.69-31.74S1160.33,913.61,1177.61,921.5Zm-13.08,28.63c13.22,6,18.9,3.8,21.21-1.25s.29-10.82-12.93-16.87-19.34-4-21.65,1.06S1151.3,944.09,1164.53,950.13Zm7-15a6.61,6.61,0,1,1-8.87,3.22A6.39,6.39,0,0,1,1171.57,935.13Z"/><path d="M1138.11,963.28l-7.84,12.87L1157.88,993l6.46-10.6,6.88,4.2c-3,7-3.85,11.17-3.89,16.19l-5,8.14-38.85-23.69-6.62,10.86-8.93-5.44,21.21-34.81Z"/><path d="M1125.38,1017c15,11.76,17.37,24.52,9.37,34.71s-21,10.9-35.94-.86-17.75-24.81-9.75-35S1110.43,1005.25,1125.38,1017Zm-19.44,24.76c11.44,9,17.48,8.12,20.91,3.75s2.83-10.45-8.61-19.42-17.86-8.42-21.29-4S1094.51,1032.76,1105.94,1041.74Zm10.37-12.93a6.61,6.61,0,1,1-9.38,1A6.39,6.39,0,0,1,1116.31,1028.81Z"/><path d="M1077.17,1048.34,1066.54,1059l22.92,22.82,8.75-8.79,5.72,5.69c-4.53,6.16-6.36,10-7.58,14.83l-6.72,6.75-32.24-32.1-9,9-7.41-7.39,28.76-28.88Z"/><path d="M1052.26,1097.56c11.83,14.93,11.17,27.89,1,35.94s-22.93,5.7-34.75-9.23-11.47-28.27-1.31-36.31S1040.47,1082.66,1052.26,1097.56Zm-24.67,19.54c9,11.39,15.1,12,19.45,8.53s5.19-9.5-3.83-20.9-15.41-12.35-19.76-8.9S1018.56,1105.7,1027.59,1117.1Zm13.09-10.15a6.61,6.61,0,1,1-9.36-1.18A6.4,6.4,0,0,1,1040.68,1107Z"/><path d="M998.07,1116.81l-12.84,7.9,16.95,27.54,10.57-6.5,4.22,6.87c-5.84,4.93-8.5,8.19-10.83,12.64l-8.12,5-23.84-38.76-10.83,6.67-5.49-8.92,34.72-21.36Z"/><path d="M962.31,1158.86c8,17.29,4.31,29.73-7.46,35.17s-23.62.17-31.61-17.12-4.51-30.18,7.25-35.61S954.34,1141.61,962.31,1158.86Zm-28.58,13.2c6.1,13.2,11.87,15.19,16.91,12.86s7.27-8,1.18-21.22-12.07-15.62-17.12-13.29S927.63,1158.86,933.73,1172.06Zm15.12-6.79a6.61,6.61,0,1,1-8.83-3.34A6.4,6.4,0,0,1,948.85,1165.27Z"/><path d="M905.12,1164.84l-14.33,4.65,10,30.77,11.8-3.83,2.49,7.67c-6.84,3.41-10.2,6-13.51,9.74l-9.06,2.94-14-43.29-12.11,3.93-3.22-10,38.77-12.58Z"/><path d="M860.47,1197.27c3.68,18.69-2.83,29.92-15.55,32.42s-23-5.41-26.68-24.1,2.74-30.39,15.46-32.89S856.8,1178.63,860.47,1197.27Zm-30.89,6.08c2.81,14.27,7.95,17.57,13.4,16.49s9-6.07,6.15-20.34-8-18-13.49-17S826.77,1189.09,829.58,1203.35Zm16.29-3a6.61,6.61,0,1,1-7.78-5.33A6.39,6.39,0,0,1,845.87,1200.32Z"/><path d="M803.44,1189.58l-15,1.14,2.45,32.25,12.38-.94.61,8c-7.46,1.71-11.32,3.39-15.42,6.28l-9.51.73-3.45-45.37-12.69,1-.79-10.44,40.65-3.09Z"/><path d="M752.44,1210.59c-.77,19-9.72,28.44-22.67,27.91s-21.1-10.62-20.33-29.66,9.75-28.91,22.69-28.38S753.22,1191.61,752.44,1210.59ZM721,1209.31c-.59,14.53,3.64,18.93,9.19,19.16s10.13-3.82,10.72-18.35-3.62-19.41-9.17-19.63S721.58,1194.79,721,1209.31Zm16.55.85a6.61,6.61,0,1,1-6.33-7A6.4,6.4,0,0,1,737.54,1210.16Z"/><path d="M698,1207.7c-3,18.81-13,27.09-25.79,25s-19.71-13-16.7-31.84,13.08-27.57,25.87-25.52S701,1188.94,698,1207.7Zm-31.08-5c-2.29,14.36,1.39,19.23,6.88,20.11s10.5-2.61,12.8-17-1.32-19.7-6.8-20.58S669.24,1188.38,666.94,1202.73Zm16.34,2.79a6.61,6.61,0,1,1-5.47-7.69A6.4,6.4,0,0,1,683.28,1205.52Z"/><path d="M644.3,1198.42c-5.22,18.32-16.12,25.35-28.58,21.8s-18-15.28-12.8-33.6,16.25-25.81,28.72-22.26S649.51,1180.14,644.3,1198.42ZM614,1189.79c-4,14-.9,19.25,4.44,20.78s10.74-1.34,14.72-15.32,1-19.72-4.3-21.24S618,1175.81,614,1189.79Zm15.89,4.71a6.61,6.61,0,1,1-4.51-8.29A6.38,6.38,0,0,1,629.92,1194.5Z"/><path d="M597,1165.64l-13.9-5.82-12.5,29.82,11.44,4.8-3.12,7.44c-7.41-1.88-11.61-2.14-16.58-1.43l-8.79-3.69,17.59-42-11.73-4.92,4-9.65,37.6,15.76Z"/><path d="M542.05,1161.1c-9.4,16.57-21.65,20.83-32.92,14.44s-13.91-19.1-4.51-35.67,21.89-21.25,33.16-14.86S551.42,1144.57,542.05,1161.1Zm-27.38-15.53c-7.17,12.65-5.42,18.5-.59,21.24S524.83,1168,532,1155.4s5.66-18.92.83-21.66S521.84,1132.92,514.67,1145.57Zm14.33,8.32a6.61,6.61,0,1,1-2.43-9.11A6.4,6.4,0,0,1,529,1153.89Z"/><path d="M503.84,1118.09l-12.14-8.93-19.16,26,10,7.36-4.78,6.49c-6.77-3.56-10.79-4.8-15.79-5.28l-7.68-5.65,27-36.65L471,1093.94l6.2-8.43L510,1109.66Z"/><path d="M451.46,1100.77c-13,13.91-25.92,15.19-35.38,6.34s-9.06-21.82,4-35.73,26.25-15.55,35.71-6.69S464.44,1086.89,451.46,1100.77Zm-23-21.5c-9.93,10.61-9.6,16.71-5.55,20.51s10.17,3.71,20.1-6.9,9.92-17.07,5.87-20.86S438.41,1068.65,428.48,1079.27Zm12,11.44a6.61,6.61,0,1,1-.23-9.43A6.39,6.39,0,0,1,440.46,1090.71Z"/><path d="M412.11,1063c-14.56,12.29-27.53,12-35.89,2.13s-6.42-22.73,8.14-35,27.89-12.34,36.25-2.44S426.63,1050.78,412.11,1063ZM391.81,1039c-11.11,9.38-11.5,15.47-7.92,19.72s9.66,4.89,20.77-4.49,11.86-15.78,8.28-20S402.92,1029.6,391.81,1039Zm10.55,12.78a6.61,6.61,0,1,1,.89-9.39A6.38,6.38,0,0,1,402.36,1051.75Z"/><path d="M391.18,1009.47l-8.29-12.58-27,17.8,6.83,10.36-6.73,4.44c-5.11-5.69-8.46-8.24-13-10.43l-5.25-7.95,38-25.05-7-10.62,8.74-5.76,22.44,34Z"/><path d="M363,965.29l-6.75-13.48L327.33,966.3l5.56,11.1L325.68,981c-4.4-6.25-7.42-9.19-11.66-11.89l-4.27-8.53,40.69-20.38-5.7-11.37,9.36-4.69,18.26,36.45Z"/><path d="M324.22,926c-17.92,6.45-30,1.7-34.38-10.49s1.89-23.55,19.82-30,30.45-1.87,34.83,10.33S342.1,919.57,324.22,926Zm-10.65-29.61c-13.68,4.92-16.16,10.5-14.28,15.72s7.35,7.94,21,3,16.62-10.66,14.74-15.88S327.25,891.47,313.57,896.39ZM319,912a6.61,6.61,0,1,1,4.09-8.5A6.4,6.4,0,0,1,319,912Z"/><path d="M323.27,868.52l-3.38-14.69-31.51,7.25,2.78,12.09L283.3,875c-2.8-7.12-5-10.68-8.52-14.31l-2.14-9.29L317,841.19l-2.86-12.4,10.21-2.34,9.13,39.72Z"/><path d="M294.87,821.21c-18.94,2-29.55-5.42-30.94-18.31s7.39-22.43,26.33-24.48,30,5.37,31.42,18.26S313.76,819.17,294.87,821.21Zm-3.37-31.3c-14.46,1.56-18.19,6.39-17.59,11.92s5.27,9.45,19.72,7.89,18.66-6.44,18.07-12S306,788.35,291.5,789.91Zm1.6,16.49a6.61,6.61,0,1,1,6-7.29A6.38,6.38,0,0,1,293.1,806.4Z"/><path d="M289.57,766.86c-19.05-.31-28.66-9-28.45-22s10.1-21.35,29.15-21,29.14,9,28.93,22S308.57,767.17,289.57,766.86Zm.51-31.47c-14.53-.24-18.83,4.1-18.92,9.65s4.06,10,18.6,10.27,19.32-4.09,19.41-9.65S304.62,735.63,290.08,735.39ZM289.64,752a6.61,6.61,0,1,1,6.84-6.5A6.4,6.4,0,0,1,289.64,752Z"/><path d="M290.9,712.46c-18.89-2.41-27.48-12.14-25.84-25s12.4-20.11,31.3-17.69,28,12.2,26.32,25.05S309.75,714.87,290.9,712.46Zm4-31.22c-14.42-1.84-19.17,2-19.87,7.5S278,699.16,292.37,701s19.65-1.93,20.35-7.44S309.31,683.08,294.89,681.24Zm-2.27,16.41a6.61,6.61,0,1,1,7.52-5.7A6.39,6.39,0,0,1,292.62,697.65Z"/><path d="M316.21,660.82l3.67-14.62-31.36-7.88-3,12-7.83-2c.74-7.61.37-11.8-1.08-16.61l2.33-9.24L323,633.62l3.1-12.34,10.15,2.55-9.93,39.54Z"/><path d="M312.44,605.76c-17.8-6.8-23.85-18.28-19.22-30.38s16.79-16.61,34.59-9.81S352.1,584,347.47,596.13,330.18,612.55,312.44,605.76Zm11.24-29.39c-13.58-5.2-19.1-2.59-21.09,2.6s.4,10.81,14,16,19.55,2.76,21.53-2.43S337.26,581.56,323.68,576.37Zm-6.08,15.41a6.61,6.61,0,1,1,8.65-3.77A6.39,6.39,0,0,1,317.6,591.78Z"/><path d="M349.22,561.55l7-13.34-28.62-15.06-5.78,11-7.14-3.75c2.52-7.22,3.14-11.39,2.87-16.4l4.44-8.44,40.27,21.19,5.92-11.26,9.26,4.87-19,36.08Z"/><path d="M358.54,507.17c-15.7-10.8-18.88-23.38-11.54-34.05s20.24-12.2,35.93-1.4S402.2,495.37,394.86,506,374.19,517.94,358.54,507.17Zm17.84-25.93c-12-8.24-18-7-21.11-2.43s-2.16,10.6,9.82,18.84,18.35,7.28,21.5,2.7S388.36,489.48,376.38,481.24Zm-9.54,13.55a6.61,6.61,0,1,1,9.3-1.63A6.39,6.39,0,0,1,366.84,494.79Z"/><path d="M404.69,472.84l9.94-11.32-24.3-21.35-8.18,9.33-6.06-5.32c4.13-6.43,5.72-10.34,6.63-15.27l6.29-7.17,34.18,30,8.4-9.56,7.86,6.91-26.9,30.63Z"/><path d="M426.49,422.14C413.75,408,413.6,395,423.23,386.33s22.52-7.13,35.26,7,13.21,27.5,3.58,36.16S439.19,436.27,426.49,422.14Zm23.41-21.05c-9.72-10.81-15.82-11-20-7.29s-4.58,9.8,5.14,20.61,16.14,11.37,20.27,7.65S459.62,411.9,449.9,401.09Zm-12.44,11a6.61,6.61,0,1,1,9.41.59A6.39,6.39,0,0,1,437.46,412Z"/><path d="M467.47,386.21c-11-15.57-9.61-28.47,1-35.94s23.21-4.43,34.19,11.13,9.88,28.86-.7,36.33S478.42,401.73,467.47,386.21Zm25.72-18.15c-8.38-11.88-14.42-12.79-19-9.59s-5.7,9.2,2.68,21.08,14.69,13.18,19.23,10S501.57,379.94,493.19,368.06Zm-13.64,9.41a6.61,6.61,0,1,1,9.28,1.69A6.4,6.4,0,0,1,479.55,377.47Z"/><path d="M512.39,355.34c-9.06-16.76-6.18-29.41,5.22-35.57s23.56-1.67,32.63,15.08,6.41,29.83-5,36S521.44,372.05,512.39,355.34Zm27.69-15c-6.92-12.78-12.81-14.4-17.7-11.76s-6.74,8.46.18,21.25,13,14.82,17.92,12.18S547,353.14,540.08,340.35Zm-14.66,7.74a6.61,6.61,0,1,1,9,2.77A6.39,6.39,0,0,1,525.42,348.09Z"/><polygon points="517.76 416.28 517.76 612.35 655.15 749.74 413.24 991.66 611.9 991.66 754.85 848.72 989.85 1083.72 989.85 889.9 849.33 749.38 1086.76 511.96 892.94 511.96 752.42 652.48 517.76 416.28"/><polygon class="cls-7" points="549.97 502.33 549.97 594.21 705.6 749.84 497.05 958.39 590.14 958.39 752.32 796.22 953.77 997.67 953.77 906.85 796.59 749.67 1002.95 543.32 912.13 543.32 751.18 704.26 549.97 502.33"/><text class="cls-8" transform="translate(99.91 932.47) rotate(73.15)">I</text><text class="cls-8" transform="translate(108.69 964.12) rotate(68.45)">N</text><text class="cls-8" transform="translate(138.7 1038.48) rotate(62.07)">F</text><text class="cls-8" transform="matrix(0.57, 0.82, -0.82, 0.57, 171.39, 1100.52)">O</text><text class="cls-8" transform="translate(222.38 1172.95) rotate(48.16)">R</text><text class="cls-8" transform="matrix(0.76, 0.65, -0.65, 0.76, 275.25, 1232)">M</text><text class="cls-8" transform="matrix(0.83, 0.55, -0.55, 0.83, 345.99, 1292.1)">A</text><text class="cls-8" transform="translate(412.39 1335.58) rotate(27.08)">T</text><text class="cls-8" transform="translate(477.37 1367.76) rotate(22.64)">I</text><text class="cls-8" transform="translate(507.6 1381.44) rotate(17.57)">O</text><text class="cls-8" transform="matrix(0.98, 0.18, -0.18, 0.98, 592.33, 1407.59)">N</text><text class="cls-8" transform="translate(670.21 1420.75) rotate(5.28)"> </text><text class="cls-8" transform="matrix(1, 0.01, -0.01, 1, 709.78, 1424.96)">S</text><text class="cls-8" transform="translate(785.31 1425.08) rotate(-5.86)">E</text><text class="cls-8" transform="translate(856.68 1417.74) rotate(-12.39)">C</text><text class="cls-8" transform="translate(937.97 1399.43) rotate(-19.24)">U</text><text class="cls-8" transform="matrix(0.9, -0.44, 0.44, 0.9, 1013.88, 1372.51)">R</text><text class="cls-8" transform="translate(1082.44 1337.9) rotate(-30.67)">I</text><text class="cls-8" transform="matrix(0.82, -0.58, 0.58, 0.82, 1110.83, 1321.79)">T</text><text class="cls-8" transform="matrix(0.75, -0.66, 0.66, 0.75, 1171.35, 1278.76)">Y</text><text class="cls-8" transform="matrix(0.69, -0.72, 0.72, 0.69, 1225.32, 1229.85)"> </text><text class="cls-8" transform="matrix(0.62, -0.78, 0.78, 0.62, 1253.53, 1201.4)">C</text><text class="cls-8" transform="translate(1304.62 1136.14) rotate(-57.82)">L</text><text class="cls-8" transform="translate(1341.01 1078.34) rotate(-64.08)">U</text><text class="cls-8" transform="translate(1375.89 1005.73) rotate(-70.86)">B</text></g></svg>