<svg xmlns="http://www.w3.org/2000/svg" viewBox="0 0 1537.43 1548"><defs><style>.cls-1,.cls-2{fill:none;}.cls-1,.cls-2,.cls-4,.cls-5,.cls-6{stroke:#000;stroke-miterlimit:10;}.cls-1{stroke-width:10px;}.cls-2{stroke-width:5px;}.cls-3{font-size:105.82px;font-family:MS-PGothic, MS PGothic;}.cls-4,.cls-6,.cls-7{fill:#fff;}.cls-4{stroke-width:28px;}.cls-5,.cls-6{stroke-width:12px;}</style></defs><title>信安协会新LOGO</title><g id="图层_5" data-name="图层 5"><circle class="cls-1" cx="776.93" cy="778.5" r="697.5"/><circle class="cls-2" cx="776.93" cy="778.5" r="676.99"/><circle class="cls-2" cx="776.93" cy="778.5" r="523.13"/><circle class="cls-1" cx="776.93" cy="778.5" r="502.61"/><text class="cls-3" transform="translate(1312.08 933.1) rotate(109.04)">B</text><text class="cls-3" transform="matrix(-0.43, 0.9, -0.9, -0.43, 1290.91, 994.89)">U</text><text class="cls-3" transform="matrix(-0.53, 0.85, -0.85, -0.53, 1262.13, 1054.16)">L</text><text class="cls-3" transform="matrix(-0.62, 0.78, -0.78, -0.62, 1233.35, 1101.16)">C</text><text class="cls-3" transform="translate(1190.16 1154.51) rotate(133.46)"> </text><text class="cls-3" transform="matrix(-0.75, 0.67, -0.67, -0.75, 1169.47, 1177.32)">Y</text><text class="cls-3" transform="translate(1124.43 1217.78) rotate(144.35)">T</text><text class="cls-3" transform="translate(1074.47 1252.83) rotate(148.72)">I</text><text class="cls-3" transform="translate(1053.87 1266.34) rotate(153.27)">R</text><text class="cls-3" transform="translate(996.66 1295.34) rotate(159.89)">U</text><text class="cls-3" transform="matrix(-0.97, 0.23, -0.23, -0.97, 935.03, 1318.12)">C</text><text class="cls-3" transform="translate(868.54 1333.6) rotate(173.24)">E</text><text class="cls-3" transform="translate(810.92 1340.64) rotate(179.42)">S</text><text class="cls-3" transform="translate(748.79 1340.68) rotate(-175.79)"> </text><text class="cls-3" transform="translate(718.09 1339.25) rotate(-170.81)">N</text><text class="cls-3" transform="translate(653.29 1329.44) rotate(-163.33)">O</text><text class="cls-3" transform="translate(583.14 1307.72) rotate(-158.85)">I</text><text class="cls-3" transform="translate(559.84 1299.5) rotate(-154.46)">T</text><text class="cls-3" transform="translate(505.2 1273.66) rotate(-147.99)">A</text><text class="cls-3" transform="translate(450.01 1239.76) rotate(-140.71)">M</text><text class="cls-3" transform="matrix(-0.69, -0.73, 0.73, -0.69, 391.1, 1191.24)">R</text><text class="cls-3" transform="matrix(-0.6, -0.8, 0.8, -0.6, 346.73, 1145.06)">O</text><text class="cls-3" transform="translate(303.71 1086.36) rotate(-119.94)">F</text><text class="cls-3" transform="translate(275.25 1037.68) rotate(-113.72)">N</text><text class="cls-3" transform="translate(249.29 976.65) rotate(-109.07)">I</text><text class="cls-3" transform="translate(240.99 952.93) rotate(-106.18)"> </text><text class="cls-3" transform="translate(232.25 922.95) rotate(-102.98)"> </text><text class="cls-3" transform="matrix(-0.11, -0.99, 0.99, -0.11, 223.18, 893.97)">✽</text><text class="cls-3" transform="matrix(0.04, -1, 1, 0.04, 213.59, 791.25)">X</text><text class="cls-3" transform="translate(216.86 729.09) rotate(-83.14)">I</text><text class="cls-3" transform="translate(218.94 704.52) rotate(-78.53)">A</text><text class="cls-3" transform="translate(231.35 640.91) rotate(-71.41)">M</text><text class="cls-3" transform="translate(256.11 568.6) rotate(-64.55)">E</text><text class="cls-3" transform="translate(280.74 516.1) rotate(-58.17)">N</text><text class="cls-3" transform="matrix(0.6, -0.8, 0.8, 0.6, 316.26, 460.23)"> </text><text class="cls-3" transform="matrix(0.67, -0.75, 0.75, 0.67, 334, 435.14)">U</text><text class="cls-3" transform="matrix(0.75, -0.66, 0.66, 0.75, 377.76, 386.08)">N</text><text class="cls-3" transform="translate(428.01 342.8) rotate(-36.77)">I</text><text class="cls-3" transform="translate(447.21 327.35) rotate(-32.18)">V</text><text class="cls-3" transform="translate(502.31 292.79) rotate(-25.91)">E</text><text class="cls-3" transform="translate(554.4 267.18) rotate(-19.68)">R</text><text class="cls-3" transform="translate(614.77 245.54) rotate(-13.24)">S</text><text class="cls-3" transform="matrix(0.99, -0.15, 0.15, 0.99, 675.52, 231.95)">I</text><text class="cls-3" transform="translate(699.8 227.44) rotate(-4.34)">T</text><text class="cls-3" transform="translate(760.14 222.76) rotate(1.91)">Y</text><text class="cls-3" transform="translate(820.97 225.34) rotate(6.63)"> </text><text class="cls-3" transform="translate(851.56 227.83) rotate(11.93)">O</text><text class="cls-3" transform="translate(922.69 243.23) rotate(18.44)">F</text><text class="cls-3" transform="translate(976.5 261.65) rotate(22.91)"> </text><text class="cls-3" transform="translate(1005.12 273.01) rotate(27.63)">T</text><text class="cls-3" transform="translate(1058.78 301.06) rotate(33.75)">E</text><text class="cls-3" transform="translate(1107.19 332.91) rotate(40.26)">C</text><text class="cls-3" transform="matrix(0.68, 0.73, -0.73, 0.68, 1159.26, 376.94)">H</text><text class="cls-3" transform="translate(1204.06 425.04) rotate(53.85)">N</text><text class="cls-3" transform="translate(1243.08 477.87) rotate(60.9)">O</text><text class="cls-3" transform="translate(1278.14 541.65) rotate(67.41)">L</text><text class="cls-3" transform="translate(1299.87 592.25) rotate(73.94)">O</text><text class="cls-3" transform="translate(1320.01 662.03) rotate(81.25)">G</text><text class="cls-3" transform="translate(1330.48 731.09) rotate(87.97)">Y</text><text class="cls-3" transform="matrix(-0.11, 0.99, -0.99, -0.11, 1334.38, 791.01)">✽</text><path class="cls-4" d="M1073.41,812.69V738.83l-80-5a218,218,0,0,0-7.87-29.5L1052.29,660l-36.92-64-71.8,35.67A219.59,219.59,0,0,0,922,610.17l35.68-71.79-64-36.93L849.4,568.2a216.85,216.85,0,0,0-29.49-7.88l-5-80H741.05l-5,80a216.6,216.6,0,0,0-29.5,7.88l-44.31-66.75-64,36.93L634,610.17a219.59,219.59,0,0,0-21.57,21.57l-71.8-35.67-36.93,64,66.75,44.31a218.07,218.07,0,0,0-7.88,29.5l-80,5v73.86l80,5a218.07,218.07,0,0,0,7.88,29.5L503.66,891.5l36.93,64,71.8-35.67A221.81,221.81,0,0,0,634,941.36l-35.68,71.79,64,36.93,44.31-66.75a216.6,216.6,0,0,0,29.5,7.88l5,80h73.86l5-80a216.85,216.85,0,0,0,29.49-7.88l44.31,66.75,64-36.93L922,941.36a221.81,221.81,0,0,0,21.57-21.57l71.8,35.67,36.92-64-66.74-44.31a218,218,0,0,0,7.87-29.5Z"/><circle class="cls-5" cx="779.61" cy="775.76" r="164.87"/><circle class="cls-6" cx="780.55" cy="776.7" r="132.67"/><path d="M607,387.8c-6.45-16.65-2.27-28.08,9.06-32.46s22.11,1.24,28.56,17.89,2.43,28.5-8.89,32.89S613.48,404.41,607,387.8Zm27.52-10.66c-4.92-12.71-10.2-14.91-15.06-13s-7.28,7.07-2.36,19.78,10.37,15.33,15.23,13.45S639.48,389.85,634.56,377.14ZM620,382.6a6.19,6.19,0,1,1,8.05,3.65A6,6,0,0,1,620,382.6Z"/><path d="M660.9,385.6l13.68-3.5-7.51-29.37-11.27,2.88-1.87-7.32c6.6-2.79,9.89-5,13.21-8.31l8.66-2.22,10.56,41.33,11.56-3,2.43,9.51-37,9.47Z"/><path d="M704.59,357.92c-2.34-17.7,4.41-27.82,16.46-29.41s21.19,6.42,23.53,24.12-4.36,28.27-16.4,29.86S706.92,375.58,704.59,357.92Zm29.25-3.87c-1.78-13.51-6.4-16.89-11.56-16.21s-8.74,5.15-6.95,18.66,6.46,17.34,11.62,16.66S735.63,367.56,733.84,354.05Zm-15.42,1.88a6.19,6.19,0,1,1,7,5.44A6,6,0,0,1,718.42,355.93Z"/><path d="M757.39,368.52l14.13-.23L771,338l-11.63.19-.12-7.56c7.07-1.18,10.78-2.54,14.78-5l8.93-.15.7,42.65,11.92-.2.16,9.81-38.21.62Z"/><path d="M806.38,351.78c1.84-17.77,10.76-26,22.84-24.78s19.12,11.16,17.29,28.93-10.81,26.47-22.89,25.22S804.55,369.49,806.38,351.78Zm29.35,3c1.41-13.55-2.3-17.92-7.47-18.46s-9.7,3-11.1,16.54,2.25,18.37,7.43,18.9S834.33,368.37,835.73,354.81Zm-15.43-1.76a6.19,6.19,0,1,1,5.51,6.92A6,6,0,0,1,820.3,353.05Z"/><path d="M855.32,374.32l13.78,3.1,6.67-29.58-11.36-2.55,1.67-7.38c7.15.52,11.07.07,15.54-1.4l8.72,2L881,380.09l11.63,2.62-2.16,9.58-37.28-8.4Z"/><path d="M906.82,369.52c6-16.83,16.59-22.76,28-18.7s15.95,15.36,10,32.19-16.74,23.18-28.19,19.12S900.87,386.31,906.82,369.52Zm27.81,9.87c4.56-12.85,2-18-2.92-19.7s-10.12.61-14.68,13.45-2.14,18.39,2.77,20.13S930.08,392.23,934.63,379.39ZM920.05,374a6.19,6.19,0,1,1,3.73,8A6,6,0,0,1,920.05,374Z"/><path d="M954.77,387.21c7.93-16,19.17-20.63,30.06-15.23s14,17.15,6.08,33.15-19.37,21-30.26,15.64S946.86,403.17,954.77,387.21Zm26.44,13.11c6-12.21,4.11-17.6-.56-19.91s-10.13-.6-16.18,11.61-4.31,18,.36,20.31S975.16,412.53,981.21,400.32Zm-13.85-7a6.19,6.19,0,1,1,2.75,8.4A6,6,0,0,1,967.36,393.28Z"/><path d="M992.78,425.46l11.83,7.73,16.58-25.38-9.74-6.37,4.13-6.33c6.52,3,10.35,3.94,15.05,4.13l7.49,4.89-23.33,35.71,10,6.52-5.36,8.22-32-20.9Z"/><path d="M1042.68,438.94c11.46-13.7,23.48-15.57,32.8-7.77s9.6,19.95-1.86,33.65-23.76,15.91-33.08,8.11S1031.25,452.6,1042.68,438.94Zm22.63,18.93c8.75-10.45,8.12-16.14,4.13-19.49s-9.71-2.95-18.45,7.51-8.41,16.49-4.42,19.83S1056.57,468.32,1065.31,457.87Zm-11.81-10.09a6.2,6.2,0,1,1,.7,8.81A6,6,0,0,1,1053.5,447.78Z"/><path d="M1070.66,485l9.7,10.28,22-20.81-8-8.46,5.49-5.19c5.65,4.42,9.15,6.24,13.68,7.53l6.13,6.5-31,29.27,8.19,8.67-7.14,6.74-26.23-27.79Z"/><path d="M1116.06,509.79c14.34-10.65,26.46-9.65,33.7.1s4.68,21.64-9.66,32.29-26.82,9.92-34.06.16S1101.76,520.41,1116.06,509.79Zm17.59,23.69c10.94-8.12,11.66-13.8,8.55-18s-8.74-5.14-19.69,3-12,14.07-8.91,18.25S1122.7,541.6,1133.65,533.48Zm-9.13-12.57a6.2,6.2,0,1,1-1.38,8.74A6,6,0,0,1,1124.52,520.91Z"/><path d="M1132.51,561.11l7,12.26,26.31-15.08-5.79-10.09,6.56-3.76c4.45,5.62,7.43,8.21,11.53,10.52l4.45,7.75-37,21.21,5.93,10.35-8.51,4.87L1124,566Z"/><path d="M1170.86,595.83c16.43-7,28-3.17,32.73,8s-.53,22.14-17,29.12-28.4,3.34-33.15-7.84S1154.46,602.79,1170.86,595.83ZM1182.39,623c12.54-5.33,14.57-10.68,12.54-15.47s-7.3-7-19.84-1.72-15,10.85-13,15.65S1169.85,628.32,1182.39,623Zm-5.92-14.36a6.19,6.19,0,1,1-3.39,8.17A6,6,0,0,1,1176.47,608.63Z"/><path d="M1190.24,643.11c17.15-5,28.17.18,31.55,11.85s-3.16,21.92-20.32,26.89-28.59-.06-32-11.72S1173.13,648.07,1190.24,643.11Zm8.22,28.34c13.09-3.8,15.74-8.87,14.29-13.87s-6.41-7.87-19.49-4.07-16.18,9-14.73,14S1185.37,675.25,1198.46,671.45Zm-4.17-15a6.19,6.19,0,1,1-4.34,7.7A6,6,0,0,1,1194.29,656.49Z"/><path d="M1187.74,697l2.3,13.93L1220,706l-1.89-11.48,7.46-1.23c2.2,6.82,4.09,10.29,7.13,13.88l1.45,8.82L1192,722.88l1.94,11.77-9.68,1.6-6.21-37.71Z"/><path d="M1211.52,742.86c17.84-.81,27.34,6.79,27.89,18.93s-8.22,20.56-26.06,21.37-27.79-6.77-28.34-18.91S1193.73,743.67,1211.52,742.86Zm1.34,29.48c13.61-.62,17.38-4.93,17.15-10.13s-4.39-9.15-18-8.53-17.83,4.94-17.6,10.15S1199.24,773,1212.86,772.34Zm-.54-15.53a6.2,6.2,0,1,1-6,6.48A6,6,0,0,1,1212.32,756.81Z"/><path d="M1196.48,794.61l-1,14.09,30.24,2.16.83-11.61,7.54.54c.55,7.15,1.58,11,3.7,15.16l-.63,8.92-42.55-3-.85,11.89L1184,832l2.73-38.11Z"/><path d="M1209,844.82c17.53,3.36,25,13,22.71,24.9s-12.78,18.08-30.32,14.71-25.45-13-23.16-25S1191.45,841.46,1209,844.82Zm-5.57,29c13.38,2.58,18.06-.74,19-5.85s-2.13-9.92-15.52-12.49-18.49.66-19.48,5.77S1190,871.22,1203.38,873.79Zm3.09-15.22a6.2,6.2,0,1,1-7.37,4.89A6,6,0,0,1,1206.47,858.57Z"/><path d="M1182.24,891.64,1178,905.1l28.88,9.21,3.54-11.08,7.2,2.3c-1.14,7.08-1,11,0,15.61l-2.72,8.51-40.64-13L1170.63,928l-9.35-3,11.62-36.41Z"/><path d="M1182.54,943.36c16.25,7.41,21.24,18.51,16.2,29.56s-16.69,14.56-32.94,7.15-21.65-18.69-16.61-29.75S1166.33,936,1182.54,943.36Zm-12.25,26.85c12.4,5.66,17.72,3.54,19.88-1.19s.27-10.15-12.13-15.8-18.13-3.73-20.29,1S1157.89,964.55,1170.29,970.21Zm6.6-14.07a6.2,6.2,0,1,1-8.32,3A6,6,0,0,1,1176.89,956.14Z"/><path d="M1160.75,989.58c15.25,9.28,18.89,20.89,12.58,31.27s-18.3,12.48-33.56,3.19-19.28-21.12-13-31.5S1145.53,980.32,1160.75,989.58Zm-15.35,25.21c11.65,7.08,17.18,5.61,19.89,1.17s1.47-10-10.17-17.13-17.56-5.85-20.27-1.4S1133.76,1007.7,1145.4,1014.79Zm8.22-13.19a6.2,6.2,0,1,1-8.61,2A6,6,0,0,1,1153.62,1001.6Z"/><path d="M1119.37,1024.1l-8.71,11.12,23.86,18.71,7.18-9.16,6,4.66c-3.54,6.24-4.82,10-5.41,14.65l-5.52,7-33.57-26.32-7.35,9.39-7.73-6,23.58-30.08Z"/><path d="M1101.64,1072.69c12.66,12.59,13.48,24.72,4.92,33.34s-20.71,7.85-33.37-4.74-13.81-25-5.24-33.66S1089,1060.12,1101.64,1072.69Zm-20.81,20.92c9.66,9.61,15.38,9.47,19.06,5.78s3.77-9.41-5.89-19-15.71-9.8-19.38-6.11S1071.16,1084,1080.83,1093.61Zm11.06-10.9a6.19,6.19,0,1,1-8.84-.06A6,6,0,0,1,1091.89,1082.71Z"/><path d="M1053.33,1096.6l-11.07,8.78,18.84,23.75,9.12-7.23,4.69,5.93c-4.89,5.24-7,8.57-8.67,13l-7,5.56-26.51-33.43-9.34,7.41-6.1-7.68,29.94-23.75Z"/><path d="M1024.74,1139.71c9.37,15.2,7.34,27.2-3,33.57s-22,2.8-31.34-12.4-7.58-27.58,2.76-34S1015.39,1124.55,1024.74,1139.71Zm-25.12,15.48c7.15,11.61,12.75,12.81,17.18,10.08s5.87-8.27-1.28-19.88-13-13.19-17.42-10.45S992.47,1143.59,999.62,1155.19Zm13.31-8a6.2,6.2,0,1,1-8.59-2.12A6,6,0,0,1,1012.93,1147.18Z"/><path d="M972.2,1151.66l-12.82,5.94,12.74,27.51,10.55-4.89,3.18,6.86c-6,4-8.82,6.69-11.48,10.58l-8.11,3.76-17.92-38.71-10.82,5-4.12-8.9,34.67-16.06Z"/><path d="M934.29,1186.85c5.53,17,.73,28.16-10.82,31.92s-22-2.46-27.53-19.44-.87-28.58,10.68-32.34S928.78,1169.92,934.29,1186.85Zm-28,9.13c4.21,13,9.37,15.45,14.32,13.84s7.65-6.66,3.43-19.62-9.51-15.87-14.46-14.26S902,1183,906.24,1196Zm14.81-4.65a6.19,6.19,0,1,1-7.84-4.08A6,6,0,0,1,921.05,1191.33Z"/><path d="M885.5,1202.05c3.46,17.52-2.63,28-14.55,30.4s-21.56-5-25-22.57,2.54-28.48,14.45-30.84S882,1184.58,885.5,1202.05Zm-29,5.73c2.65,13.37,7.47,16.45,12.58,15.44s8.39-5.7,5.74-19.07-7.55-16.89-12.66-15.88S853.91,1194.41,856.55,1207.78Zm15.27-2.86a6.19,6.19,0,1,1-7.3-5A6,6,0,0,1,871.82,1204.92Z"/><path d="M832.08,1194.88,818,1196l2.33,30.23,11.6-.9.58,7.54c-7,1.61-10.6,3.19-14.45,5.9l-8.91.69-3.28-42.53-11.89.92-.75-9.79,38.1-2.93Z"/><path d="M784.29,1214.63c-.71,17.84-9.09,26.66-21.22,26.18s-19.8-9.94-19.09-27.78,9.11-27.11,21.25-26.63S785,1196.83,784.29,1214.63Zm-29.48-1.17c-.54,13.62,3.43,17.74,8.63,18s9.49-3.59,10-17.21-3.41-18.19-8.62-18.4S755.35,1199.84,754.81,1213.46Zm15.51.78a6.2,6.2,0,1,1-5.94-6.56A6,6,0,0,1,770.32,1214.24Z"/><path d="M734,1195.23l-14-2.21L715.3,1223l11.49,1.82-1.18,7.47c-7.17-.06-11.06.64-15.43,2.39l-8.82-1.41,6.69-42.12-11.77-1.88,1.54-9.69,37.74,6Z"/><path d="M682.91,1203.32c-4.88,17.18-15.09,23.78-26.78,20.46s-16.9-14.3-12-31.48,15.21-24.22,26.9-20.9S687.78,1186.18,682.91,1203.32Zm-28.38-8.06c-3.73,13.11-.83,18,4.17,19.47s10.07-1.26,13.79-14.37,1-18.48-4-19.91S658.25,1182.15,654.53,1195.26Zm14.89,4.4a6.19,6.19,0,1,1-4.23-7.77A6,6,0,0,1,669.42,1199.66Z"/><path d="M638.61,1172.65l-13-5.45-11.69,28,10.74,4.49-2.92,7c-7-1.75-10.89-2-15.55-1.32l-8.25-3.45,16.45-39.35-11-4.6,3.79-9.05,35.25,14.74Z"/><path d="M587,1168.43c-8.8,15.55-20.28,19.55-30.86,13.57s-13-17.89-4.25-33.43,20.49-19.94,31.07-14S595.81,1152.93,587,1168.43Zm-25.69-14.53c-6.71,11.86-5.06,17.35-.53,19.91s10.08,1.15,16.79-10.71,5.29-17.73.75-20.3S568.06,1142,561.35,1153.9Zm13.44,7.79a6.19,6.19,0,1,1-2.28-8.54A6,6,0,0,1,574.79,1161.69Z"/><path d="M542.9,1142.73c-10.57,14.4-22.45,17-32.24,9.84s-10.85-19.3-.29-33.7,22.71-17.39,32.5-10.2S553.43,1128.37,542.9,1142.73Zm-23.79-17.45c-8.07,11-7.08,16.62-2.88,19.7s9.87,2.33,17.93-8.65,7.34-17,3.15-20.07S527.17,1114.29,519.11,1125.28Zm12.42,9.32a6.2,6.2,0,1,1-1.26-8.76A6,6,0,0,1,531.53,1134.6Z"/><path d="M512.05,1098.52l-10.33-9.64L481,1111.05l8.51,7.94-5.16,5.52c-5.91-4.06-9.52-5.65-14.12-6.64l-6.54-6.1,29.11-31.19-8.72-8.13,6.69-7.18,27.94,26.08Z"/><path d="M465.18,1076.69c-13.63,11.53-25.79,11.32-33.64,2s-6-21.3,7.59-32.84,26.13-11.6,34-2.33S478.78,1065.18,465.18,1076.69Zm-19.06-22.53c-10.4,8.81-10.76,14.52-7.39,18.49s9,4.57,19.46-4.23,11.1-14.81,7.74-18.78S456.53,1045.36,446.12,1054.16Zm9.91,12a6.2,6.2,0,1,1,.82-8.81A6,6,0,0,1,456,1066.13Z"/><path d="M445.5,1026.5l-7.79-11.78-25.29,16.72,6.42,9.71-6.31,4.17c-4.8-5.33-7.94-7.72-12.18-9.76l-4.93-7.46L431,1004.58l-6.57-10,8.18-5.41,21.08,31.87Z"/><path d="M405,994.3c-16,8-27.73,5-33.19-5.9s-.88-22.13,15.07-30.14S415,953.1,420.49,964,420.93,986.31,405,994.3Zm-13.25-26.37c-12.18,6.12-13.87,11.6-11.53,16.25s7.73,6.56,19.91.44,14.27-11.79,11.93-16.44S403.94,961.82,391.77,967.93Zm6.83,14a6.2,6.2,0,1,1,2.85-8.37A6,6,0,0,1,398.6,981.89Z"/><path d="M397.66,940.93l-4.8-13.29-28.51,10.3,3.95,10.94-7.11,2.57c-3.41-6.3-5.9-9.37-9.54-12.35l-3-8.41,40.11-14.48L384.68,905l9.23-3.33,13,35.94Z"/><path d="M365.89,900.09c-17.4,4-28.11-1.73-30.85-13.57s4.36-21.71,21.76-25.73,28.56,1.63,31.29,13.46S383.25,896.08,365.89,900.09Zm-6.65-28.75c-13.27,3.07-16.2,8-15,13.06s6,8.21,19.24,5.14,16.65-8.09,15.48-13.16S372.52,868.27,359.24,871.34Zm3.35,15.17a6.2,6.2,0,1,1,4.75-7.46A6,6,0,0,1,362.59,886.51Z"/><path d="M355,850.18c-17.75,1.93-27.71-5-29-17.13s6.9-21,24.65-23,28.16,5,29.48,17.07S372.71,848.25,355,850.18Zm-3.2-29.34c-13.55,1.48-17,6-16.48,11.19s5,8.86,18.5,7.38,17.49-6.06,16.92-11.24S365.36,819.37,351.81,820.84Zm1.52,15.46a6.19,6.19,0,1,1,5.6-6.84A6,6,0,0,1,353.33,836.3Z"/><path d="M366.62,797.6l.23-14.12-30.31-.5-.19,11.64-7.56-.13c-1-7.1-2.19-10.85-4.53-14.93l.14-8.94,42.65.7.19-11.93,9.81.16-.62,38.21Z"/><path d="M351.16,748.26c-17.72-2.24-25.78-11.34-24.26-23.39s11.6-18.87,29.32-16.63,26.22,11.4,24.7,23.46S368.83,750.5,351.16,748.26Zm3.7-29.27c-13.52-1.71-18,1.89-18.63,7.06s2.76,9.76,16.28,11.47,18.42-1.84,19.07-7S368.38,720.7,354.86,719Zm-2.11,15.39a6.19,6.19,0,1,1,7-5.36A6,6,0,0,1,352.75,734.38Z"/><path d="M374.81,699.83l3.42-13.71-29.42-7.34L346,690.07l-7.33-1.83c.68-7.14.33-11.07-1-15.58l2.17-8.67,41.38,10.33,2.89-11.57,9.52,2.38-9.25,37.07Z"/><path d="M371.19,648.23c-16.69-6.35-22.38-17.11-18.06-28.46s15.73-15.6,32.42-9.24,22.8,17.27,18.47,28.62S387.83,654.57,371.19,648.23Zm10.5-27.58c-12.74-4.85-17.91-2.4-19.76,2.47s.38,10.14,13.11,15,18.33,2.56,20.19-2.31S394.43,625.5,381.69,620.65ZM376,635.11a6.2,6.2,0,1,1,8.1-3.54A6,6,0,0,1,376,635.11Z"/><path d="M405.6,606.76l6.56-12.51-26.85-14.08-5.4,10.31-6.7-3.52c2.35-6.77,2.93-10.67,2.67-15.37l4.15-7.92,37.78,19.81,5.53-10.56,8.7,4.55-17.75,33.85Z"/><path d="M414.26,555.77c-14.72-10.1-17.72-21.89-10.85-31.91s18.95-11.45,33.67-1.35,18.1,22.14,11.23,32.16S429,565.85,414.26,555.77ZM431,531.44c-11.24-7.71-16.85-6.55-19.79-2.25s-2,9.94,9.22,17.65,17.21,6.8,20.16,2.51S442.19,539.15,431,531.44ZM422,544.16a6.19,6.19,0,1,1,8.7-1.54A6,6,0,0,1,422,544.16Z"/><path d="M443.67,514c-13.43-11.76-15-23.81-7-32.95s20.17-9.15,33.6,2.61,15.37,24.11,7.37,33.25S457.07,525.76,443.67,514Zm19.44-22.19c-10.26-9-16-8.48-19.39-4.57s-3.17,9.64,7.09,18.62,16.29,8.77,19.72,4.85S473.36,500.8,463.11,491.83Zm-10.36,11.58a6.2,6.2,0,1,1,8.83-.51A6,6,0,0,1,452.75,503.41Z"/><path d="M490.38,487.07l10.49-9.46L480.56,455.1l-8.64,7.79-5.06-5.61c4.55-5.54,6.45-9,7.83-13.5l6.64-6,28.57,31.68,8.85-8,6.58,7.29L497,494.36Z"/><path d="M516.17,442.25c-10.32-14.58-9-26.68.86-33.7s21.75-4.19,32.06,10.39,9.32,27-.6,34.06S526.46,456.78,516.17,442.25Zm24.08-17.05c-7.87-11.13-13.53-12-17.78-9S517.14,424.86,525,436s13.8,12.34,18,9.33S548.13,436.32,540.25,425.2ZM527.48,434a6.2,6.2,0,1,1,8.7,1.57A6,6,0,0,1,527.48,434Z"/><path d="M567.83,427l12.41-6.75-14.47-26.64-10.23,5.56-3.61-6.64c5.73-4.32,8.38-7.25,10.78-11.3l7.85-4.26,20.37,37.47,10.48-5.69,4.68,8.62L572.51,435.6Z"/><polygon points="562.58 465.22 562.58 649.02 691.37 777.82 464.59 1004.6 650.83 1004.6 784.82 870.6 1005.13 1090.9 1005.13 909.21 873.4 777.48 1095.97 554.91 914.28 554.91 782.55 686.64 562.58 465.22"/><polygon class="cls-7" points="591.78 546.74 591.78 632.87 737.68 778.77 542.18 974.27 629.45 974.27 781.47 822.24 970.32 1011.09 970.32 925.95 822.98 778.61 1016.42 585.16 931.29 585.16 780.41 736.04 591.78 546.74"/></g></svg>