<svg xmlns="http://www.w3.org/2000/svg" viewBox="0 0 3716.57 1054.48"><defs><style>.cls-1{font-size:120.76px;font-family:STZhongsong;}.cls-2{fill:none;stroke-width:8px;}.cls-2,.cls-3,.cls-4,.cls-5{stroke:#000;stroke-miterlimit:10;}.cls-3,.cls-5,.cls-6{fill:#fff;}.cls-3{stroke-width:28px;}.cls-4,.cls-5{stroke-width:12px;}</style></defs><title>信安协会新LOGO</title><g id="图层_7" data-name="图层 7"><path d="M1304,607.13V592.74c31.86-3.59,34.94-8.73,25.69-25.68-11.81-20-34.42-58.57-66.27-108.92-24.15,37.5-46.76,73-63.71,103.27-11.82,21.57-7.71,27.23,26.72,31.33v14.39H1106.75V592.74c30.83-3.08,45.21-10.78,60.11-29.79,19-24.66,39.56-54.46,84.26-123.31-26.72-43.15-49.84-79.63-66.79-106.86-22.09-34.42-28.77-41.1-66.28-45.21V273.18H1246v14.39c-31.85,3.08-32.88,8.73-24.66,22.61,16.44,28.77,35.45,58.56,58,93.5,20-30.83,38.54-60.11,51.89-83.74,12.33-22.1,8.74-28.26-25.17-32.37V273.18h117.14v14.39c-38.53,5.14-47.78,9.25-69.87,40.59-17,24.14-27.23,39-62.68,92.47,27.74,43.67,53.94,86.32,78.09,123.82,24.66,39,34.93,44.7,71.93,48.29v14.39Z"/><path d="M1740.72,607.13V592.74c42.13-4.1,43.67-7.19,43.16-62.16l.51-209.62c-42.13,94-109.94,241-127.93,286.17h-13.35c-17.47-46.75-75.53-188-114.57-281-8.74,179.82-9.25,220.41-9.25,230.17.51,28.77,13.36,32.88,48.29,36.47v14.39H1445.82V592.74c29.8-3.08,42.13-9.24,46.24-37,3.08-22.6,3.6-41.1,17-228.62,2.06-26.72-3.08-35.45-48.29-39.56V273.18h89.4l113.54,260.48,121.76-260.48h89.91v14.39c-44.19,5.14-49.84,9.76-48.81,45.72l2,197.29c2.06,55,3.6,57.54,48.81,62.16v14.39Z"/><path d="M2269.9,287.57c-32.37,2.05-44.19,10.27-45.22,33.91-.51,11.81-1.54,33.39-1.54,80.66v55.48c0,52.41-6.16,92.48-36,123.82-24.15,25.18-59.08,32.88-94.53,32.88-29.8,0-61.65-6.16-84.26-23.63-30.83-23.63-45.73-59.08-45.73-119.19v-131c0-46.24-4.11-49.32-45.21-52.92V273.18h135.12v14.39c-41.1,2.57-45.21,6.68-45.21,52.92V468.93c0,75,35.45,116.11,97.1,116.11,73,0,96.08-45.21,96.08-130.5v-52.4c0-47.27-1.54-66.79-2.57-80.66-1.54-23.12-13.36-31.86-51.38-33.91V273.18H2269.9Z"/><path d="M2581.74,353.85c-4.62-16.45-10.79-33.4-16.44-42.65-8.22-13.87-13.35-17.47-41.61-17.47h-51.38V543.94c0,40.07,4.11,45.72,52.92,48.8v14.39H2375.72V592.74c47.78-3.08,51.9-8.22,51.9-48.8V293.73h-46.76c-28.25,0-36.48,3.09-45.21,18.5-6.16,10.28-10.27,22.61-17,41.62h-15.42c3.09-31.34,6.17-63.71,7.71-92.48h11.82c7.7,12.33,13.35,11.81,27.74,11.81H2554c14.39,0,18.5-2.05,26.2-11.81h12.33c0,24.14,2.06,61.14,4.63,90.93Z"/><path d="M2820.64,351.28c-8.73-33.91-23.12-67.31-71.41-67.31-40.08,0-53.95,29.29-53.95,56,0,35.45,22.61,53.43,65.25,75.53,61.65,31.85,88.37,55.48,88.37,104.29,0,54-46.76,95.05-113,95.05-30.83,0-57.54-8.74-78.61-17-4.11-14.38-10.27-49.32-13.87-77.06l15.93-4.11c10.27,34.42,32.88,79.12,86.31,79.12,37,0,59.6-25.69,59.6-59.09,0-39.55-21.07-55.48-66.28-80.14-53.94-29.29-84.26-54-84.26-101.73,0-45.72,38-88.88,105.84-88.88,28.77,0,57,7.71,67.82,9.76,2.05,18.5,4.11,39.05,8.22,72.44Z"/><path d="M3159.72,525.44c-3.08,13.36-16.95,66.28-22.09,81.69H2887.94V592.74c47.78-3.59,51.38-8.22,51.38-50.34V339.46c0-45.73-5.66-48.29-44.19-51.89V273.18h157.21c48.3,0,68.33-.51,74.5-1,.51,12.84,2.57,51.37,4.62,78.6l-15.41,2.57a170.76,170.76,0,0,0-15.41-39c-8.22-17-20-20.56-50.87-20.56H3001c-15.93,0-17,1.55-17,16.45V423.72h57c38.53,0,41.1-7.71,47.27-42.65h15.92V486.91h-15.92c-6.68-37-10.79-42.13-47.78-42.13H2984V547c0,36,11.31,39.05,37,39.56h47.78c31.34,0,36.48-4.62,47.78-18,9.77-10.79,20.55-31.86,27.75-47.27Z"/><path d="M3503.94,524.93c-7.2,24.66-20.55,61.65-28.26,77.58-14.9,3.08-55,12.33-94,12.33-122.79,0-185.47-81.69-185.47-171.6,0-104.81,79.64-177.25,194.72-177.25,44.18,0,80.14,9.25,97.1,11.82,2,23.12,5.65,53.94,9.76,79.63l-15.93,3.6c-10.27-34.42-22.6-55.49-48.8-66.28-13.36-6.16-34.43-9.76-53.95-9.76-84.77,0-129.47,62.68-129.47,147.45,0,99.16,51.38,162.86,134.61,162.86,52.4,0,78.09-24.14,104.29-75.52Z"/><text class="cls-1" transform="translate(1306.17 823.9)">厦门理工学院信息（网络）安全协会</text><line class="cls-2" x1="942.38" y1="679.18" x2="3639.81" y2="679.18"/></g><g id="图层_5" data-name="图层 5"><path class="cls-3" d="M766.52,567.67V505.3L699,501.08a185.15,185.15,0,0,0-6.65-24.91l56.36-37.41-31.18-54-60.62,30.13a186.52,186.52,0,0,0-18.22-18.22L668.8,336l-54-31.18-37.42,56.36a182.89,182.89,0,0,0-24.91-6.65L548.24,287H485.88l-4.22,67.54a182.89,182.89,0,0,0-24.91,6.65l-37.41-56.36-54,31.18,30.12,60.62a186.42,186.42,0,0,0-18.21,18.22l-60.63-30.13-31.18,54,56.36,37.41a185.15,185.15,0,0,0-6.65,24.91L267.6,505.3v62.37l67.54,4.22a184.75,184.75,0,0,0,6.65,24.91l-56.36,37.41,31.18,54,60.63-30.12a186.32,186.32,0,0,0,18.21,18.21l-30.12,60.62,54,31.19,37.41-56.37a182.92,182.92,0,0,0,24.91,6.66L485.88,786h62.36l4.22-67.54a182.92,182.92,0,0,0,24.91-6.66l37.42,56.37,54-31.19-30.13-60.62a186.42,186.42,0,0,0,18.22-18.21l60.62,30.12,31.18-54L692.33,596.8A184.75,184.75,0,0,0,699,571.89Z"/><circle class="cls-4" cx="518.44" cy="536.48" r="139.22"/><circle class="cls-5" cx="519.23" cy="537.27" r="112.03"/><path d="M372.74,208.89c-5.45-14.06-1.92-23.71,7.65-27.41s18.67,1.05,24.11,15.11,2.06,24.06-7.51,27.76S378.17,222.91,372.74,208.89Zm23.23-9c-4.15-10.73-8.61-12.59-12.71-11s-6.15,6-2,16.7,8.75,12.94,12.85,11.35S400.13,210.62,396,199.89Zm-12.28,4.61a5.23,5.23,0,1,1,6.8,3.08A5.07,5.07,0,0,1,383.69,204.5Z"/><path d="M418.21,207l11.56-2.95-6.34-24.8-9.52,2.43-1.58-6.19c5.58-2.35,8.36-4.19,11.16-7l7.31-1.87,8.92,34.89,9.76-2.49,2,8-31.26,8Z"/><path d="M455.11,183.66c-2-14.95,3.73-23.49,13.9-24.83s17.9,5.42,19.87,20.37S485.2,203.07,475,204.41,457.08,198.57,455.11,183.66Zm24.7-3.26c-1.5-11.41-5.4-14.27-9.76-13.69s-7.38,4.34-5.87,15.75,5.45,14.65,9.81,14.07S481.32,191.81,479.81,180.4Zm-13,1.58a5.23,5.23,0,1,1,5.88,4.6A5.07,5.07,0,0,1,466.79,182Z"/><path d="M499.68,192.62l11.93-.2-.42-25.59-9.82.16-.1-6.39c6-1,9.1-2.14,12.48-4.23l7.54-.13.58,36,10.07-.17.14,8.29-32.27.52Z"/><path d="M541.07,178.48c1.55-15,9.08-22,19.28-20.92S576.5,167,574.94,182s-9.12,22.35-19.32,21.3S539.52,193.44,541.07,178.48ZM565.85,181c1.18-11.44-1.94-15.13-6.32-15.58s-8.18,2.51-9.37,14,1.9,15.51,6.28,16S564.66,192.49,565.85,181Zm-13-1.48a5.23,5.23,0,1,1,4.65,5.84A5.05,5.05,0,0,1,552.82,179.56Z"/><path d="M582.4,197.51,594,200.14l5.63-25L590.09,173l1.4-6.23c6,.44,9.35.07,13.13-1.17l7.36,1.66-7.92,35.14,9.82,2.21-1.82,8.09-31.48-7.1Z"/><path d="M625.89,193.47c5.05-14.21,14-19.22,23.68-15.79s13.46,13,8.42,27.18-14.13,19.58-23.8,16.15S620.86,207.64,625.89,193.47Zm23.48,8.33c3.85-10.84,1.68-15.16-2.46-16.63s-8.55.52-12.4,11.36-1.81,15.52,2.34,17S645.52,212.65,649.37,201.8Zm-12.31-4.51a5.23,5.23,0,1,1,3.14,6.77A5.05,5.05,0,0,1,637.06,197.29Z"/><path d="M666.37,208.41c6.7-13.51,16.19-17.42,25.38-12.86s11.83,14.48,5.14,28-16.36,17.76-25.55,13.2S659.69,221.89,666.37,208.41Zm22.32,11.07c5.11-10.31,3.47-14.86-.46-16.81s-8.56-.51-13.67,9.8-3.63,15.2.31,17.15S683.58,229.79,688.69,219.48ZM677,213.53a5.24,5.24,0,1,1,2.32,7.1A5.06,5.06,0,0,1,677,213.53Z"/><path d="M698.46,240.71l10,6.53,14-21.43-8.22-5.37,3.49-5.35c5.51,2.52,8.74,3.33,12.71,3.49l6.32,4.13-19.7,30.15,8.43,5.51-4.54,6.93-27-17.65Z"/><path d="M740.63,252.12c9.67-11.57,19.82-13.14,27.69-6.56s8.11,16.85-1.57,28.42-20.07,13.43-27.94,6.84S731,263.65,740.63,252.12Zm19.11,16c7.38-8.83,6.85-13.63,3.48-16.46S755,249.16,747.64,258s-7.1,13.92-3.73,16.74S752.35,276.93,759.74,268.11Zm-10-8.53a5.24,5.24,0,1,1,.6,7.45A5.06,5.06,0,0,1,749.76,259.58Z"/><path d="M764.24,291l8.18,8.67L791,282.13,784.3,275l4.64-4.38c4.76,3.74,7.72,5.27,11.55,6.36l5.17,5.49-26.19,24.71,6.91,7.33-6,5.68L758.21,296.7Z"/><path d="M802.58,312c12.11-9,22.34-8.15,28.46.09s4,18.27-8.16,27.26-22.65,8.38-28.76.14S790.5,320.91,802.58,312Zm14.85,20c9.24-6.86,9.85-11.66,7.23-15.19s-7.39-4.34-16.63,2.52-10.15,11.88-7.53,15.42S808.19,338.82,817.43,332Zm-7.71-10.62a5.23,5.23,0,1,1-1.16,7.38A5.07,5.07,0,0,1,809.72,321.34Z"/><path d="M816.46,355.29l5.93,10.35,22.21-12.72-4.88-8.52,5.54-3.18c3.75,4.75,6.27,6.94,9.73,8.89l3.75,6.55-31.25,17.9,5,8.73-7.19,4.12-16-28Z"/><path d="M848.83,384.62c13.88-5.9,23.64-2.68,27.64,6.77S876,410.08,862.14,416s-24,2.82-28-6.62S835,390.49,848.83,384.62Zm9.74,22.93c10.59-4.5,12.31-9,10.59-13.06S863,388.54,852.41,393s-12.66,9.17-10.94,13.21S848,412.05,858.57,407.55Zm-5-12.13a5.23,5.23,0,1,1-2.86,6.9A5.06,5.06,0,0,1,853.57,395.42Z"/><path d="M865.19,424.54c14.49-4.2,23.79.16,26.64,10s-2.67,18.51-17.15,22.7-24.15-.05-27-9.9S850.75,428.73,865.19,424.54Zm6.94,23.93c11-3.2,13.3-7.49,12.07-11.71s-5.41-6.64-16.46-3.44-13.66,7.6-12.44,11.82S861.08,451.67,872.13,448.47Zm-3.52-12.64a5.23,5.23,0,1,1-3.66,6.51A5.06,5.06,0,0,1,868.61,435.83Z"/><path d="M863.08,470,865,481.79l25.26-4.16-1.6-9.69,6.3-1c1.86,5.77,3.45,8.69,6,11.73l1.22,7.45-35.54,5.84,1.64,9.94-8.18,1.34-5.24-31.84Z"/><path d="M883.16,508.81c15.06-.68,23.08,5.74,23.54,16s-7,17.36-22,18-23.46-5.72-23.92-16S868.13,509.49,883.16,508.81Zm1.12,24.89c11.49-.52,14.68-4.15,14.48-8.54s-3.7-7.73-15.19-7.21-15.06,4.17-14.87,8.56S872.78,534.22,884.28,533.7Zm-.46-13.11a5.24,5.24,0,1,1-5.08,5.47A5.07,5.07,0,0,1,883.82,520.59Z"/><path d="M870.43,552.5l-.85,11.9,25.54,1.83.7-9.8,6.37.46c.46,6,1.33,9.25,3.12,12.8l-.54,7.53-35.92-2.58-.73,10.05-8.26-.6,2.31-32.18Z"/><path d="M881,594.91c14.8,2.85,21.11,11,19.17,21s-10.8,15.27-25.6,12.42-21.49-11-19.55-21.1S866.18,592.07,881,594.91Zm-4.71,24.47c11.3,2.17,15.25-.62,16.08-4.94s-1.8-8.37-13.1-10.55-15.62.55-16.45,4.87S864.94,617.21,876.24,619.38Zm2.61-12.85a5.23,5.23,0,1,1-6.22,4.13A5.05,5.05,0,0,1,878.85,606.53Z"/><path d="M858.39,634.44l-3.63,11.37,24.39,7.78,3-9.35,6.08,1.94c-1,6-.88,9.31,0,13.18L886,666.55l-34.31-11-3.07,9.59-7.89-2.52,9.82-30.74Z"/><path d="M858.62,678.12c13.71,6.26,17.92,15.63,13.66,25s-14.1,12.28-27.81,6-18.27-15.79-14-25.12S844.94,671.87,858.62,678.12Zm-10.35,22.66c10.46,4.78,15,3,16.78-1s.23-8.56-10.23-13.34-15.31-3.16-17.13.84S837.8,696,848.27,700.78Zm5.57-11.87a5.23,5.23,0,1,1-7,2.54A5.05,5.05,0,0,1,853.84,688.91Z"/><path d="M840.2,717.15c12.88,7.84,15.95,17.64,10.61,26.4s-15.45,10.53-28.33,2.69-16.27-17.85-10.93-26.61S827.36,709.32,840.2,717.15Zm-13,21.28c9.83,6,14.5,4.74,16.78,1s1.25-8.48-8.58-14.46-14.82-5-17.11-1.19S817.41,732.44,827.24,738.43Zm6.94-11.13a5.23,5.23,0,1,1-7.27,1.69A5.05,5.05,0,0,1,834.18,727.3Z"/><path d="M805.25,746.29l-7.36,9.39L818,771.48l6.07-7.73,5,3.94c-3,5.27-4.07,8.42-4.57,12.36L819.89,786l-28.34-22.23-6.22,7.92-6.51-5.12,19.91-25.38Z"/><path d="M790.26,787.3c10.69,10.64,11.38,20.89,4.14,28.16s-17.48,6.62-28.17-4-11.65-21.15-4.41-28.42S779.6,776.69,790.26,787.3ZM772.68,805c8.16,8.12,13,8,16.09,4.89s3.19-8-5-16.06-13.26-8.28-16.36-5.16S764.53,796.85,772.68,805Zm9.35-9.2a5.23,5.23,0,1,1-7.46,0A5.06,5.06,0,0,1,782,795.76Z"/><path d="M749.46,807.49l-9.35,7.41L756,835l7.7-6.11,4,5c-4.14,4.42-5.92,7.23-7.33,11l-5.92,4.69-22.36-28.23-7.9,6.25L719,821l25.29-20Z"/><path d="M725.31,843.88c7.9,12.84,6.18,23-2.55,28.34s-18.55,2.36-26.46-10.48-6.38-23.29,2.35-28.67S717.42,831.07,725.31,843.88Zm-21.22,13.06c6,9.8,10.76,10.82,14.5,8.52s5-7-1.07-16.79-11-11.14-14.7-8.84S698.06,847.14,704.09,856.94Zm11.24-6.76a5.23,5.23,0,1,1-7.25-1.79A5.06,5.06,0,0,1,715.33,850.18Z"/><path d="M680.91,854l-10.83,5,10.75,23.24,8.92-4.13,2.68,5.8c-5.06,3.33-7.46,5.64-9.7,8.93L675.88,896l-15.12-32.69-9.14,4.23L648.15,860l29.28-13.54Z"/><path d="M648.89,883.67c4.65,14.34.6,23.77-9.16,26.94s-18.58-2.08-23.24-16.42-.72-24.14,9-27.31S644.24,869.36,648.89,883.67Zm-23.7,7.69c3.55,10.95,7.9,13,12.09,11.7s6.46-5.62,2.91-16.57-8-13.41-12.21-12S621.63,880.42,625.19,891.36Zm12.51-3.92a5.23,5.23,0,1,1-6.62-3.45A5.06,5.06,0,0,1,637.7,887.44Z"/><path d="M607.68,896.48c2.91,14.79-2.24,23.68-12.3,25.66s-18.2-4.27-21.12-19.07,2.16-24.05,12.22-26S604.76,881.73,607.68,896.48Zm-24.45,4.82c2.23,11.29,6.3,13.9,10.61,13.05s7.09-4.81,4.86-16.1S592.33,884,588,884.83,581,890,583.23,901.3Zm12.89-2.4a5.23,5.23,0,1,1-6.16-4.22A5.05,5.05,0,0,1,596.12,898.9Z"/><path d="M562.57,890.41l-11.89.91,2,25.52,9.8-.75.49,6.37c-5.9,1.35-9,2.68-12.21,5l-7.52.57-2.75-35.91-10,.77-.63-8.26,32.17-2.46Z"/><path d="M522.21,907.06c-.61,15.07-7.68,22.51-17.93,22.1s-16.71-8.4-16.11-23.47,7.71-22.89,18-22.48S522.82,892,522.21,907.06Zm-24.9-1c-.46,11.5,2.89,15,7.28,15.16s8-3,8.48-14.53-2.87-15.36-7.26-15.54S497.78,894.56,497.31,906.06Zm13.1.66a5.23,5.23,0,1,1-5-5.53A5.06,5.06,0,0,1,510.41,906.72Z"/><path d="M479.74,890.66,468,888.78l-4,25.28,9.71,1.54-1,6.31c-6.05-.06-9.33.53-13,2l-7.46-1.18,5.68-35.57-9.95-1.58,1.31-8.19L481,882.48Z"/><path d="M436.58,897.46c-4.13,14.5-12.76,20.07-22.63,17.27s-14.26-12.09-10.13-26.6,12.86-20.44,22.73-17.63S440.7,883,436.58,897.46Zm-24-6.82c-3.15,11.06-.71,15.24,3.52,16.44s8.5-1.06,11.65-12.12.82-15.61-3.41-16.82S415.77,879.57,412.61,890.64Zm12.58,3.72a5.23,5.23,0,1,1-3.57-6.56A5.06,5.06,0,0,1,425.19,894.36Z"/><path d="M399.19,871.54l-11-4.6-9.89,23.61,9.06,3.8-2.47,5.88c-5.87-1.48-9.19-1.68-13.13-1.12l-7-2.92L378.71,863l-9.29-3.89,3.2-7.64,29.77,12.46Z"/><path d="M355.65,868c-7.44,13.12-17.13,16.5-26.06,11.45s-11-15.11-3.58-28.23,17.31-16.83,26.24-11.78S363.06,854.88,355.65,868ZM334,855.68c-5.67,10-4.28,14.65-.45,16.81s8.51,1,14.18-9,4.47-15,.64-17.15S339.64,845.67,334,855.68Zm11.35,6.59a5.23,5.23,0,1,1-1.93-7.22A5.07,5.07,0,0,1,345.31,862.27Z"/><path d="M318.37,846.23c-8.93,12.15-19,14.36-27.22,8.28s-9.16-16.3-.23-28.45,19.19-14.67,27.45-8.6S327.28,834.11,318.37,846.23Zm-20.08-14.76c-6.81,9.27-6,14-2.44,16.64s8.34,2,15.15-7.3,6.21-14.34,2.67-16.95S305.11,822.2,298.29,831.47Zm10.49,7.88a5.23,5.23,0,1,1-1.06-7.39A5.06,5.06,0,0,1,308.78,839.35Z"/><path d="M292.36,808.89l-8.72-8.14-17.47,18.7,7.17,6.71L269,830.82c-5-3.43-8-4.78-11.92-5.62l-5.52-5.15,24.59-26.31-7.36-6.88,5.66-6.05,23.58,22Z"/><path d="M252.78,790.41c-11.52,9.73-21.79,9.53-28.41,1.7s-5.09-18,6.43-27.72,22.07-9.79,28.69-1.95S264.26,780.7,252.78,790.41Zm-16.08-19c-8.79,7.43-9.1,12.25-6.26,15.61s7.64,3.86,16.43-3.56,9.39-12.5,6.55-15.85S245.49,764,236.7,771.37Zm8.36,10.11a5.23,5.23,0,1,1,.69-7.43A5.06,5.06,0,0,1,245.06,781.48Z"/><path d="M236.18,748l-6.57-9.95-21.36,14.1,5.41,8.2-5.33,3.52c-4.05-4.5-6.69-6.52-10.28-8.25l-4.15-6.3,30-19.84-5.55-8.41,6.92-4.56,17.78,26.93Z"/><path d="M202,720.81c-13.48,6.76-23.42,4.17-28-5s-.73-18.68,12.74-25.45,23.76-4.34,28.36,4.83S215.46,714.06,202,720.81Zm-11.18-22.27c-10.28,5.16-11.71,9.78-9.74,13.71s6.53,5.54,16.82.38S210,702.69,208,698.76,201.13,693.38,190.84,698.54Zm5.77,11.78a5.23,5.23,0,1,1,2.41-7.06A5.07,5.07,0,0,1,196.61,710.32Z"/><path d="M195.83,675.73l-4-11.22-24.09,8.68,3.34,9.24-6,2.17c-2.88-5.33-5-7.92-8.05-10.44l-2.56-7.1,33.89-12.21-3.42-9.47,7.8-2.81,10.94,30.36Z"/><path d="M169,641.23c-14.69,3.39-23.74-1.48-26-11.48s3.7-18.33,18.39-21.72,24.11,1.4,26.41,11.4S183.69,637.85,169,641.23ZM163.44,617c-11.22,2.58-13.7,6.73-12.71,11s5,6.93,16.25,4.35,14.06-6.83,13.07-11.11S174.65,614.36,163.44,617Zm2.81,12.81a5.23,5.23,0,1,1,4-6.29A5.06,5.06,0,0,1,166.25,629.76Z"/><path d="M159.87,599.05c-15,1.63-23.4-4.28-24.5-14.48s5.84-17.76,20.83-19.38,23.77,4.24,24.88,14.44S174.82,597.43,159.87,599.05Zm-2.69-24.77c-11.44,1.24-14.39,5.07-13.91,9.44s4.17,7.48,15.61,6.24,14.77-5.11,14.3-9.48S168.62,573,157.18,574.28Zm1.28,13.06a5.24,5.24,0,1,1,4.73-5.78A5.07,5.07,0,0,1,158.46,587.34Z"/><path d="M169.72,554.65l.19-11.93-25.6-.41-.16,9.82-6.38-.1c-.8-6-1.85-9.17-3.83-12.61l.12-7.55,36,.58.16-10.06,8.28.13L178,554.78Z"/><path d="M156.68,513c-15-1.9-21.77-9.59-20.47-19.77S146,477.3,161,479.2s22.13,9.65,20.84,19.83S171.6,514.89,156.68,513Zm3.14-24.71c-11.41-1.45-15.17,1.58-15.73,6s2.32,8.24,13.74,9.69,15.55-1.54,16.11-5.9S171.24,489.73,159.82,488.28Zm-1.79,13a5.23,5.23,0,1,1,5.95-4.52A5.06,5.06,0,0,1,158,501.27Z"/><path d="M176.68,472.1l2.9-11.57-24.84-6.23-2.38,9.53-6.2-1.55c.59-6,.29-9.34-.86-13.15l1.83-7.32,34.94,8.75,2.45-9.77,8,2-7.84,31.3Z"/><path d="M173.66,428.54c-14.09-5.38-18.89-14.46-15.23-24s13.29-13.16,27.37-7.79,19.24,14.6,15.59,24.18S187.71,433.9,173.66,428.54Zm8.88-23.28c-10.75-4.1-15.12-2-16.69,2.07s.32,8.56,11.07,12.66,15.48,2.18,17-1.93S193.29,409.36,182.54,405.26Zm-4.8,12.2a5.23,5.23,0,1,1,6.84-3A5.06,5.06,0,0,1,177.74,417.46Z"/><path d="M202.75,393.51,208.3,383l-22.66-11.9-4.57,8.69-5.65-3c2-5.71,2.48-9,2.26-13l3.51-6.68,31.89,16.75,4.68-8.91,7.34,3.85-15,28.57Z"/><path d="M210.1,350.46c-12.43-8.53-15-18.49-9.15-26.94s16-9.67,28.44-1.13,15.27,18.71,9.46,27.16S222.5,359,210.1,350.46Zm14.11-20.53c-9.48-6.52-14.22-5.54-16.71-1.91s-1.71,8.39,7.78,14.91,14.53,5.75,17,2.12S233.7,336.45,224.21,329.93Zm-7.54,10.73a5.23,5.23,0,1,1,7.35-1.29A5.06,5.06,0,0,1,216.67,340.66Z"/><path d="M235,315.21c-11.33-9.95-12.67-20.13-5.9-27.85s17-7.71,28.37,2.24,13,20.38,6.19,28.09S246.29,325.12,235,315.21Zm16.44-18.74c-8.65-7.59-13.47-7.17-16.37-3.87s-2.68,8.14,6,15.73,13.75,7.42,16.65,4.12S260.07,304.06,251.42,296.47Zm-8.76,9.77a5.23,5.23,0,1,1,7.46-.41A5.06,5.06,0,0,1,242.66,306.24Z"/><path d="M274.42,292.51l8.87-8-17.13-19-7.3,6.57-4.27-4.74c3.84-4.68,5.45-7.6,6.62-11.4l5.61-5.05,24.1,26.77,7.48-6.74,5.55,6.16-24,21.59Z"/><path d="M296.24,254.68c-8.71-12.31-7.63-22.53.75-28.44s18.36-3.53,27.06,8.78,7.84,22.84-.53,28.76S304.91,267,296.24,254.68Zm20.34-14.38c-6.64-9.39-11.42-10.11-15-7.58s-4.51,7.29,2.13,16.68,11.64,10.43,15.23,7.89S323.22,249.7,316.58,240.3Zm-10.79,7.46a5.23,5.23,0,1,1,7.35,1.33A5.06,5.06,0,0,1,305.79,247.76Z"/><path d="M339.9,241.8l10.48-5.68-12.2-22.51-8.63,4.68-3.05-5.61c4.84-3.64,7.08-6.11,9.11-9.52l6.63-3.6,17.17,31.66,8.85-4.8,3.95,7.29-28.36,15.38Z"/><polygon points="335.18 274.26 335.18 429.47 443.93 538.22 252.44 729.71 409.7 729.71 522.84 616.56 708.86 802.58 708.86 649.17 597.63 537.94 785.57 350 632.15 350 520.92 461.23 335.18 274.26"/><polygon class="cls-6" points="359.84 343.1 359.84 415.83 483.04 539.02 317.96 704.1 391.64 704.1 520.01 575.73 679.47 735.19 679.47 663.3 555.06 538.89 718.4 375.55 646.51 375.55 519.11 502.94 359.84 343.1"/></g></svg>