<?xml version="1.0" ?><svg id="Layer_1" style="enable-background:new 0 0 65 65;" version="1.1" viewBox="0 0 65 65" xml:space="preserve" xmlns="http://www.w3.org/2000/svg" xmlns:xlink="http://www.w3.org/1999/xlink"><style type="text/css">
	.st0{fill:#1C1F20;}
</style><g><path class="st0" d="M4.5,0.8c-0.4,0-0.8,0.3-0.8,0.8v16c0,0.4,0.3,0.8,0.8,0.8s0.8-0.3,0.8-0.8v-16C5.3,1.1,4.9,0.8,4.5,0.8z"/><path class="st0" d="M4.5,20.8c-0.4,0-0.8,0.3-0.8,0.8v2c0,0.4,0.3,0.8,0.8,0.8s0.8-0.3,0.8-0.8v-2C5.3,21.1,4.9,20.8,4.5,20.8z"/><path class="st0" d="M53.5,53.8c-0.4,0-0.8,0.3-0.8,0.8v9c0,0.4,0.3,0.8,0.8,0.8s0.8-0.3,0.8-0.8v-9C54.3,54.1,53.9,53.8,53.5,53.8   z"/><path class="st0" d="M53.5,48.8c-0.4,0-0.8,0.3-0.8,0.8v1c0,0.4,0.3,0.8,0.8,0.8s0.8-0.3,0.8-0.8v-1C54.3,49.1,53.9,48.8,53.5,48.8   z"/><path class="st0" d="M60.5,2.8h-1.3V1.5c0-0.4-0.3-0.8-0.8-0.8s-0.8,0.3-0.8,0.8v1.3h-1.3c-0.4,0-0.8,0.3-0.8,0.8s0.3,0.8,0.8,0.8   h1.3v1.3c0,0.4,0.3,0.8,0.8,0.8s0.8-0.3,0.8-0.8V4.3h1.3c0.4,0,0.8-0.3,0.8-0.8S60.9,2.8,60.5,2.8z"/><path class="st0" d="M46.5,43.9c-0.4,0-0.8,0.3-0.8,0.8v9.1H11.3v-5.3c0-0.4-0.3-0.8-0.8-0.8s-0.8,0.3-0.8,0.8v11   c0,2.6,2.1,4.8,4.8,4.8h28c2.6,0,4.8-2.1,4.8-4.8V44.7C47.3,44.3,46.9,43.9,46.5,43.9z M42.5,62.8h-28c-1.8,0-3.3-1.5-3.3-3.3v-4.3   h34.5v4.3C45.8,61.3,44.3,62.8,42.5,62.8z"/><path class="st0" d="M10.5,43.3c0.4,0,0.8-0.3,0.8-0.8V11.3h34.5v3.3c0,0.4,0.3,0.8,0.8,0.8s0.8-0.3,0.8-0.8v-9   c0-2.6-2.1-4.8-4.8-4.8h-28c-2.6,0-4.8,2.1-4.8,4.8v37C9.8,42.9,10.1,43.3,10.5,43.3z M14.5,2.3h28c1.8,0,3.3,1.5,3.3,3.3v4.3H11.3   V5.5C11.3,3.7,12.7,2.3,14.5,2.3z"/><path class="st0" d="M22.5,7.3h12c0.4,0,0.8-0.3,0.8-0.8s-0.3-0.8-0.8-0.8h-12c-0.4,0-0.8,0.3-0.8,0.8S22.1,7.3,22.5,7.3z"/><path class="st0" d="M30.4,58.8h-3.8c-0.4,0-0.8,0.3-0.8,0.8s0.3,0.8,0.8,0.8h3.8c0.4,0,0.8-0.3,0.8-0.8S30.8,58.8,30.4,58.8z"/><path class="st0" d="M58.5,17.8h-32c-0.4,0-0.8,0.3-0.8,0.8v28c0,0.3,0.2,0.6,0.5,0.7c0.1,0,0.2,0.1,0.3,0.1c0.2,0,0.4-0.1,0.5-0.2   l5.8-5.8h25.7c0.4,0,0.8-0.3,0.8-0.8v-22C59.3,18.1,58.9,17.8,58.5,17.8z M57.8,39.8H32.5c-0.2,0-0.4,0.1-0.5,0.2l-4.7,4.7V19.3   h30.5V39.8z"/><path class="st0" d="M34.7,35.1l0.9-2.8h3.2l0.9,2.8h1.9l-3.2-9.9H36l-3.2,9.9H34.7z M36.6,28.5c0.2-0.6,0.3-1.3,0.5-1.9h0   c0.1,0.6,0.3,1.3,0.5,1.9l0.8,2.4h-2.5L36.6,28.5z"/><path class="st0" d="M45.3,35.3c1,0,1.9-0.5,2.3-1.3h0l0.1,1.1h1.6c0-0.5-0.1-1.3-0.1-2v-8.4h-1.8v4.1h0c-0.3-0.5-1-0.9-2-0.9   c-1.7,0-3.2,1.4-3.2,3.8C42.2,33.8,43.6,35.3,45.3,35.3z M45.9,29.2c0.8,0,1.4,0.6,1.6,1.3c0,0.1,0,0.3,0,0.5V32   c0,0.2,0,0.4-0.1,0.5c-0.2,0.8-0.8,1.3-1.6,1.3c-1.1,0-1.8-1-1.8-2.3C44.1,30.2,44.7,29.2,45.9,29.2z"/><path class="st0" d="M34.9,26.6l0.1-0.3c-0.6-0.4-1-0.6-1.2-0.8c-0.1-0.1-0.2-0.3-0.2-0.4c0-0.2,0.1-0.3,0.3-0.5   c0.2-0.2,0.3-0.4,0.4-0.5c0.1-0.1,0.1-0.2,0.1-0.4c0-0.3-0.1-0.5-0.3-0.7s-0.4-0.3-0.7-0.3c-0.3,0-0.5,0.1-0.7,0.3   c-0.2,0.2-0.3,0.5-0.3,0.8c0,0.5,0.2,1,0.6,1.5C33.5,25.8,34.1,26.2,34.9,26.6z"/><path class="st0" d="M31.8,26.6l0.1-0.3c-0.6-0.4-1-0.6-1.2-0.8c-0.1-0.1-0.2-0.3-0.2-0.4c0-0.2,0.1-0.3,0.3-0.5   c0.2-0.2,0.3-0.4,0.4-0.5c0.1-0.1,0.1-0.2,0.1-0.4c0-0.3-0.1-0.5-0.3-0.7c-0.2-0.2-0.4-0.3-0.7-0.3c-0.3,0-0.5,0.1-0.7,0.3   c-0.2,0.2-0.3,0.5-0.3,0.8c0,0.5,0.2,1,0.6,1.5C30.4,25.8,31,26.2,31.8,26.6z"/><path class="st0" d="M49.9,37l0.1,0.3c0.8-0.3,1.4-0.7,1.8-1.2c0.4-0.5,0.6-1,0.6-1.5c0-0.3-0.1-0.6-0.3-0.8   c-0.2-0.2-0.4-0.3-0.7-0.3c-0.3,0-0.5,0.1-0.7,0.3c-0.2,0.2-0.3,0.4-0.3,0.7c0,0.2,0,0.3,0.1,0.4c0.1,0.1,0.2,0.3,0.4,0.5   c0.2,0.2,0.3,0.4,0.3,0.5c0,0.1-0.1,0.3-0.2,0.4C50.9,36.4,50.5,36.7,49.9,37z"/><path class="st0" d="M53,37l0.1,0.3c0.8-0.3,1.4-0.7,1.8-1.2s0.6-1,0.6-1.5c0-0.3-0.1-0.6-0.3-0.8c-0.2-0.2-0.4-0.3-0.7-0.3   c-0.3,0-0.5,0.1-0.7,0.3c-0.2,0.2-0.3,0.4-0.3,0.7c0,0.2,0,0.3,0.1,0.4c0.1,0.1,0.2,0.3,0.4,0.5s0.3,0.4,0.3,0.5   c0,0.1-0.1,0.3-0.2,0.4C54,36.4,53.6,36.7,53,37z"/><path class="st0" d="M10,46c0.1,0.1,0.2,0.1,0.3,0.2c0.1,0,0.2,0.1,0.3,0.1c0.2,0,0.4-0.1,0.5-0.2c0.1-0.1,0.2-0.3,0.2-0.5   c0-0.1,0-0.2,0-0.3S11.1,45,11,45c-0.3-0.3-0.8-0.3-1.1,0c-0.1,0.1-0.1,0.2-0.2,0.2s-0.1,0.2-0.1,0.3c0,0.1,0,0.2,0.1,0.3   C9.8,45.9,9.9,46,10,46z"/></g></svg>