<?xml version="1.0" ?><svg id="Layer_1" style="enable-background:new 0 0 64 64;" version="1.1" viewBox="0 0 64 64" xml:space="preserve" xmlns="http://www.w3.org/2000/svg" xmlns:xlink="http://www.w3.org/1999/xlink"><g><path d="M0,0v64h64V0H0z M62,2v10.69287H2V2H62z M2,62V14.69287h60V62H2z"/><rect height="2" width="27.8418" x="27.37061" y="6.34668"/><path d="M20.22968,7.34277c0,1.01001-0.82001,1.84003-1.84003,1.84003c-1.01001,0-1.83002-0.83002-1.83002-1.84003   c0-1.00995,0.82001-1.82996,1.83002-1.82996C19.40967,5.51282,20.22968,6.33282,20.22968,7.34277z"/><path d="M14.64966,7.34277c0,1.01001-0.82001,1.84003-1.84003,1.84003c-1.01001,0-1.82996-0.83002-1.82996-1.84003   c0-1.00995,0.81995-1.82996,1.82996-1.82996C13.82965,5.51282,14.64966,6.33282,14.64966,7.34277z"/><path d="M9.06964,7.34277c0,1.01001-0.83002,1.84003-1.83997,1.84003c-1.01001,0-1.83002-0.83002-1.83002-1.84003   c0-1.00995,0.82001-1.82996,1.83002-1.82996C8.23962,5.51282,9.06964,6.33282,9.06964,7.34277z"/><rect height="6.23291" width="2.52539" x="34.51611" y="27.88428"/><rect height="6.23291" width="2.52588" x="17.85498" y="27.88428"/><rect height="6.2334" width="2.52539" x="26.95898" y="42.5752"/><path d="M6.01056,58.10767h51.97919v-39.5224H6.01056V58.10767z M20.87793,50.7832h-4.02295v-2h1.01172v-5.45898l-0.35889,0.21777   l-1.03613-1.71094l2.39551-1.4502l0.99854,0.61426l0.00085,7.78809h1.01135V50.7832z M38.0459,50.7832h-4.02246v-2h1.01123V43.3252   l-0.35938,0.2168l-1.03564-1.71094l3.39307-2.05469l0.00177,9.00684h1.01141V50.7832z M45.08301,25.72021l1.04932,0.52295   l0.00128,7.84863h1.01141v2h-4.02246v-2h1.01123v-5.45898l-0.3584,0.21777l-1.03613-1.71045L45.08301,25.72021z M41.61963,40.5752   h6.52539v10.2334h-6.52539V40.5752z M32.51611,25.88428h6.52539v10.23291h-6.52539V25.88428z M27.94385,25.70264l1.02051,0.57568   l0.00128,7.81348h1.01141v2h-4.02246v-2h1.01123v-5.45801l-0.35889,0.2168l-1.03613-1.71045L27.94385,25.70264z M24.95898,40.5752   h6.52539v10.2334h-6.52539V40.5752z M15.85498,25.88428h6.52588v10.23291h-6.52588V25.88428z"/><rect height="6.2334" width="2.52539" x="43.61963" y="42.5752"/></g></svg>