<?xml version="1.0" ?><svg viewBox="0 0 512 512" xmlns="http://www.w3.org/2000/svg"><g id="Cloud_hacker"><path d="M217.0416,287.8181a6.5,6.5,0,0,0-6.5-6.5H126.2379c-47.2559,0-85.9824-37.9209-86.3281-84.5322A85.18,85.18,0,0,1,125.0865,110.96h.3525a41.7966,41.7966,0,0,0,37.8-24.082,95.0386,95.0386,0,0,1,172.3916,0,41.7818,41.7818,0,0,0,37.78,24.082h.3711a84.8788,84.8788,0,0,1,60.9365,144.2754,6.5,6.5,0,0,0,9.2872,9.0977A97.97,97.97,0,0,0,373.7818,97.96h-.3525a28.7513,28.7513,0,0,1-26.01-16.5625,108.04,108.04,0,0,0-195.97,0A28.7574,28.7574,0,0,1,125.4215,97.96h-.335A98.18,98.18,0,0,0,26.91,196.8816c.3984,53.7266,44.957,97.4365,99.3281,97.4365h84.3037A6.5,6.5,0,0,0,217.0416,287.8181Z"/><path d="M124.1959,128.3914a67.0227,67.0227,0,0,0-67.0215,67.5341,6.5,6.5,0,0,0,6.499,6.4522h.0489a6.5,6.5,0,0,0,6.4521-6.5479,54.0224,54.0224,0,0,1,54.0215-54.4384h.3594a6.5,6.5,0,0,0,0-13Z"/><path d="M375.7406,437.874a59.0106,59.0106,0,0,1,32.3969-52.6108,85.7514,85.7514,0,0,0-15.29-14.8113c-.04-.03-.08-.06-.1211-.0889a6.29,6.29,0,0,1-1.9346-7.7353l12.4726-25.916a18.9231,18.9231,0,0,0-17.06-27.1133H376.21a77.8742,77.8742,0,0,0,19.2339-51.1094v-5.4636c17.57-5.9443,26.4737-13.7776,26.4737-23.3362,0-8.376-6.9209-15.4834-20.5694-21.124a14.1381,14.1381,0,0,1-7.9121-8.2363l-14.69-40.8125a26.1392,26.1392,0,0,0-38.2334-13.4454l-14.6289,8.9483a13.0825,13.0825,0,0,1-13.7256-.0088l-15.01-9.2061a26.139,26.139,0,0,0-38.0361,12.8243L242.95,200.2839a13.9646,13.9646,0,0,1-1.282,2.5088c3.8511,3.137,10.4878,7.1406,20.823,9.1953a6,6,0,1,1-2.34,11.77c-14.8172-2.9461-23.888-9.4634-28.6407-13.9834-11.8161,5.4375-17.82,12.1237-17.82,19.915,0,9.7676,9.292,17.7349,27.6338,23.7244v5.0754a77.8748,77.8748,0,0,0,19.2339,51.1094H250.564A18.923,18.923,0,0,0,233.5074,336.72l12.4815,25.9219a6.277,6.277,0,0,1-2.0264,7.8105c-.4375.3125-.8379.6055-1.17.87a87.0271,87.0271,0,0,0-33.3985,68.2569v13.22a6.5039,6.5039,0,0,0,.0884,1.0227c2.2722,26.9392,53.1533,42.0964,102.9273,43.3186V391.3718a6,6,0,0,1,12,0V497.14c26.5693-.6555,53.4577-5.2866,73.0932-13.5632A58.864,58.864,0,0,1,375.7406,437.874ZM317.8043,263.32c23.8784,0,46.5254-2.34,64.64-6.6231v1.792a64.0953,64.0953,0,0,1-.6194,8.8389,6.4912,6.4912,0,0,0-1.6657.9736,69.59,69.59,0,0,1-25.6162,12.7051,29.4933,29.4933,0,0,1-18.6885-1.3486l-10.4619-4.34a17.7494,17.7494,0,0,0-13.4971-.0664l-10.9307,4.4063a29.6165,29.6165,0,0,1-18.832,1.31,69.1778,69.1778,0,0,1-26.5117-13.5205,6.5339,6.5339,0,0,0-.7324-.5254,64.0549,64.0549,0,0,1-.5645-8.4336v-1.5134C272.2389,261.0845,294.4386,263.32,317.8043,263.32Zm20.4795,69.0586v.17a16.5112,16.5112,0,0,1-7.2569,13.6806l-6.4248,4.3565a28.904,28.904,0,0,0-6.2177,5.6836,28.9061,28.9061,0,0,0-6.212-5.68l-6.4316-4.3613a16.5086,16.5086,0,0,1-7.2568-13.68v-.1143a19.0192,19.0192,0,0,0-10.0547-16.957,64.4134,64.4134,0,0,1-7.3662-4.6318l-.0066-.0039-.0071-.0059a64.76,64.76,0,0,1-20.334-24.3941,85.7032,85.7032,0,0,0,18.0791,7.0914,42.6156,42.6156,0,0,0,27.0889-1.8428l10.87-4.3809a4.8157,4.8157,0,0,1,3.6592.0176l10.4609,4.3389a42.9275,42.9275,0,0,0,16.4131,3.2685,41.4873,41.4873,0,0,0,10.5684-1.3574,85.0314,85.0314,0,0,0,18.195-7.1313,64.7583,64.7583,0,0,1-20.3318,24.39l-.007.0059-.0066.0039a64.3534,64.3534,0,0,1-7.3526,4.625A19,19,0,0,0,338.2838,332.3787Z"/><path d="M434.6991,389.9155a47.9585,47.9585,0,1,0,47.9585,47.9585A47.9585,47.9585,0,0,0,434.6991,389.9155Zm-.0013,75.3711a6.5059,6.5059,0,1,1,6.5059-6.5058A6.5059,6.5059,0,0,1,434.6978,465.2866Zm8.045-44.79-1.5437,18.73a6.5221,6.5221,0,0,1-13,0l-1.5437-18.73a8.071,8.071,0,0,1,16.0874-1.326A8.7208,8.7208,0,0,1,442.7428,420.4971Z"/></g></svg>