<svg height="1024" width="1024" xmlns="http://www.w3.org/2000/svg" viewBox="0 0 48 48"><g data-name="28-Security-Network"><path d="M47,8H6a1,1,0,0,0,0,2H46V43a3,3,0,0,1-3,3H5a3,3,0,0,1-3-3V5A3,3,0,0,1,5,2H42.994A2.854,2.854,0,0,1,46,5a1,1,0,0,0,2,0,4.821,4.821,0,0,0-5-5H5A5.006,5.006,0,0,0,0,5V43a5.006,5.006,0,0,0,5,5H43a5.006,5.006,0,0,0,5-5V9A1,1,0,0,0,47,8Z"></path><path d="M6,4A1,1,0,0,0,6,6H8A1,1,0,0,0,8,4Z"></path><path d="M12,4a1,1,0,0,0,0,2h2a1,1,0,0,0,0-2Z"></path><path d="M41,4a1,1,0,0,0,0,2h2a1,1,0,0,0,0-2Z"></path><path d="M22,28h1v3a1,1,0,0,0,2,0V28h1a1,1,0,0,0,0-2H22a1,1,0,0,0,0,2Z"></path><path d="M10,42a2.993,2.993,0,0,0,1-5.816V30a.915.915,0,0,1,1-1h3v4a4,4,0,0,0,4,4H29a4,4,0,0,0,4-4V30h3a2.916,2.916,0,0,0,3-3V20.816a3,3,0,1,0-2,0V27a.915.915,0,0,1-1,1H33V25a4,4,0,0,0-4-4V18a2.916,2.916,0,0,0-3-3H22a2.916,2.916,0,0,0-3,3v3a4,4,0,0,0-4,4v2H12a2.916,2.916,0,0,0-3,3v6.184A2.993,2.993,0,0,0,10,42ZM38,17a1,1,0,1,1-1,1A1,1,0,0,1,38,17ZM17,25a2,2,0,0,1,2-2h1a1,1,0,0,0,1-1V18.012A.918.918,0,0,1,22,17h3.988A.919.919,0,0,1,27,18v3H24a1,1,0,0,0,0,2h5a2,2,0,0,1,2,2v8a2,2,0,0,1-2,2H19a2,2,0,0,1-2-2ZM10,38a1,1,0,1,1-1,1A1,1,0,0,1,10,38Z"></path><path d="M38,32a1,1,0,0,0-1,1v3.184a3,3,0,1,0,2,0V33A1,1,0,0,0,38,32Zm0,8a1,1,0,1,1,1-1A1,1,0,0,1,38,40Z"></path><path d="M10,25a1,1,0,0,0,1-1V20.816a3,3,0,1,0-2,0V24A1,1,0,0,0,10,25Zm0-8a1,1,0,1,1-1,1A1,1,0,0,1,10,17Z"></path></g></svg>